<mxfile host="app.diagrams.net" modified="2024-06-13T14:20:00.693Z" agent="Mozilla/5.0 (Windows NT 10.0; Win64; x64) AppleWebKit/537.36 (KHTML, like Gecko) Chrome/125.0.0.0 Safari/537.36" etag="olDPD-MLlY8Ok_5AxDX6" version="24.5.2" type="github">
  <diagram name="Page-1" id="1mZLNWGD-sYl4ZrDSX6F">
    <mxGraphModel dx="1221" dy="1708" grid="1" gridSize="10" guides="1" tooltips="1" connect="1" arrows="1" fold="1" page="1" pageScale="1" pageWidth="850" pageHeight="1100" math="0" shadow="0">
      <root>
        <mxCell id="0" />
        <mxCell id="1" parent="0" />
        <mxCell id="Kzq9Bu8EnrHGI0cKUDUz-1" value="&lt;font style=&quot;font-size: 18px;&quot;&gt;NetLogo&lt;/font&gt;&lt;div style=&quot;font-size: 18px;&quot;&gt;&lt;br&gt;&lt;/div&gt;&lt;div style=&quot;font-size: 18px;&quot;&gt;&lt;br&gt;&lt;/div&gt;&lt;div style=&quot;font-size: 18px;&quot;&gt;&lt;font style=&quot;font-size: 18px;&quot;&gt;&lt;br style=&quot;&quot;&gt;&lt;/font&gt;&lt;/div&gt;&lt;div style=&quot;font-size: 18px;&quot;&gt;&lt;font style=&quot;font-size: 18px;&quot;&gt;&lt;br style=&quot;&quot;&gt;&lt;/font&gt;&lt;/div&gt;&lt;div style=&quot;font-size: 18px;&quot;&gt;&lt;font style=&quot;font-size: 18px;&quot;&gt;&lt;br style=&quot;&quot;&gt;&lt;/font&gt;&lt;/div&gt;&lt;div style=&quot;font-size: 18px;&quot;&gt;&lt;font style=&quot;font-size: 18px;&quot;&gt;&lt;br style=&quot;&quot;&gt;&lt;/font&gt;&lt;/div&gt;&lt;div style=&quot;font-size: 18px;&quot;&gt;&lt;font style=&quot;font-size: 18px;&quot;&gt;&lt;br style=&quot;&quot;&gt;&lt;/font&gt;&lt;/div&gt;&lt;div style=&quot;font-size: 18px;&quot;&gt;&lt;font style=&quot;font-size: 18px;&quot;&gt;&lt;br style=&quot;&quot;&gt;&lt;/font&gt;&lt;/div&gt;&lt;div style=&quot;font-size: 18px;&quot;&gt;&lt;font style=&quot;font-size: 18px;&quot;&gt;&lt;br style=&quot;&quot;&gt;&lt;/font&gt;&lt;/div&gt;&lt;div style=&quot;font-size: 18px;&quot;&gt;&lt;font style=&quot;font-size: 18px;&quot;&gt;&lt;br style=&quot;&quot;&gt;&lt;/font&gt;&lt;/div&gt;&lt;div style=&quot;font-size: 18px;&quot;&gt;&lt;font style=&quot;font-size: 18px;&quot;&gt;&lt;br style=&quot;&quot;&gt;&lt;/font&gt;&lt;/div&gt;&lt;div style=&quot;font-size: 18px;&quot;&gt;&lt;font style=&quot;font-size: 18px;&quot;&gt;&lt;br style=&quot;&quot;&gt;&lt;/font&gt;&lt;/div&gt;&lt;div style=&quot;font-size: 18px;&quot;&gt;&lt;font style=&quot;font-size: 18px;&quot;&gt;&lt;br style=&quot;&quot;&gt;&lt;/font&gt;&lt;/div&gt;&lt;div style=&quot;font-size: 18px;&quot;&gt;&lt;font style=&quot;font-size: 18px;&quot;&gt;&lt;br style=&quot;&quot;&gt;&lt;/font&gt;&lt;/div&gt;&lt;div style=&quot;font-size: 18px;&quot;&gt;&lt;font style=&quot;font-size: 18px;&quot;&gt;&lt;br style=&quot;&quot;&gt;&lt;/font&gt;&lt;/div&gt;&lt;div style=&quot;font-size: 18px;&quot;&gt;&lt;font style=&quot;font-size: 18px;&quot;&gt;&lt;br style=&quot;&quot;&gt;&lt;/font&gt;&lt;/div&gt;&lt;div style=&quot;font-size: 18px;&quot;&gt;&lt;font style=&quot;font-size: 18px;&quot;&gt;&lt;br style=&quot;&quot;&gt;&lt;/font&gt;&lt;/div&gt;&lt;div style=&quot;font-size: 18px;&quot;&gt;&lt;font style=&quot;font-size: 18px;&quot;&gt;&lt;br style=&quot;&quot;&gt;&lt;/font&gt;&lt;/div&gt;&lt;div style=&quot;font-size: 18px;&quot;&gt;&lt;font style=&quot;font-size: 18px;&quot;&gt;&lt;br style=&quot;&quot;&gt;&lt;/font&gt;&lt;/div&gt;&lt;div style=&quot;font-size: 18px;&quot;&gt;&lt;font style=&quot;font-size: 18px;&quot;&gt;&lt;br style=&quot;&quot;&gt;&lt;/font&gt;&lt;/div&gt;&lt;div style=&quot;font-size: 18px;&quot;&gt;&lt;font style=&quot;font-size: 18px;&quot;&gt;&lt;br style=&quot;&quot;&gt;&lt;/font&gt;&lt;/div&gt;&lt;div style=&quot;font-size: 18px;&quot;&gt;&lt;font style=&quot;font-size: 18px;&quot;&gt;&lt;br style=&quot;&quot;&gt;&lt;/font&gt;&lt;/div&gt;&lt;div style=&quot;font-size: 18px;&quot;&gt;&lt;br style=&quot;&quot;&gt;&lt;/div&gt;" style="rounded=0;whiteSpace=wrap;html=1;fontStyle=1;fontSize=12;" vertex="1" parent="1">
          <mxGeometry x="338" y="26.25" width="860" height="460" as="geometry" />
        </mxCell>
        <mxCell id="Kzq9Bu8EnrHGI0cKUDUz-2" value="&lt;b style=&quot;font-size: 14px;&quot;&gt;&lt;font style=&quot;font-size: 14px;&quot;&gt;&amp;nbsp; Celestial&amp;nbsp;&amp;nbsp;&lt;/font&gt;&lt;/b&gt;&lt;div style=&quot;font-size: 14px;&quot;&gt;&lt;b&gt;&lt;font style=&quot;font-size: 14px;&quot;&gt;bodies /&amp;nbsp;&amp;nbsp;&lt;/font&gt;&lt;/b&gt;&lt;/div&gt;&lt;div style=&quot;font-size: 14px;&quot;&gt;&lt;b style=&quot;&quot;&gt;&lt;font style=&quot;font-size: 14px;&quot;&gt;planets&amp;nbsp;&amp;nbsp;&lt;/font&gt;&lt;/b&gt;&lt;/div&gt;" style="rounded=0;whiteSpace=wrap;html=1;align=right;" vertex="1" parent="1">
          <mxGeometry x="480" y="82.72" width="140" height="95" as="geometry" />
        </mxCell>
        <mxCell id="Kzq9Bu8EnrHGI0cKUDUz-3" value="" style="shape=image;verticalLabelPosition=bottom;labelBackgroundColor=default;verticalAlign=top;aspect=fixed;imageAspect=0;image=https://upload.wikimedia.org/wikipedia/commons/0/02/Solar_system_no_background.png;" vertex="1" parent="1">
          <mxGeometry x="360" y="80" width="78.5" height="97.72" as="geometry" />
        </mxCell>
        <mxCell id="Kzq9Bu8EnrHGI0cKUDUz-4" value="" style="shape=image;verticalLabelPosition=bottom;labelBackgroundColor=default;verticalAlign=top;aspect=fixed;imageAspect=0;image=https://dejpknyizje2n.cloudfront.net/svgcustom/clipart/preview/turtle-8261-17007-550x550.png;" vertex="1" parent="1">
          <mxGeometry x="490" y="110.22" width="40" height="40" as="geometry" />
        </mxCell>
        <mxCell id="Kzq9Bu8EnrHGI0cKUDUz-5" value="&lt;span style=&quot;font-size: 14px;&quot;&gt;&lt;b&gt;Star&amp;nbsp; &amp;nbsp;&lt;/b&gt;&lt;/span&gt;" style="rounded=0;whiteSpace=wrap;html=1;align=right;" vertex="1" parent="1">
          <mxGeometry x="480" y="220" width="140" height="95" as="geometry" />
        </mxCell>
        <mxCell id="Kzq9Bu8EnrHGI0cKUDUz-7" value="" style="shape=image;verticalLabelPosition=bottom;labelBackgroundColor=default;verticalAlign=top;aspect=fixed;imageAspect=0;image=https://dejpknyizje2n.cloudfront.net/svgcustom/clipart/preview/turtle-8261-17007-550x550.png;" vertex="1" parent="1">
          <mxGeometry x="500" y="120.22" width="40" height="40" as="geometry" />
        </mxCell>
        <mxCell id="Kzq9Bu8EnrHGI0cKUDUz-8" value="" style="shape=image;verticalLabelPosition=bottom;labelBackgroundColor=default;verticalAlign=top;aspect=fixed;imageAspect=0;image=https://dejpknyizje2n.cloudfront.net/svgcustom/clipart/preview/turtle-8261-17007-550x550.png;" vertex="1" parent="1">
          <mxGeometry x="500" y="247.5" width="40" height="40" as="geometry" />
        </mxCell>
        <mxCell id="Kzq9Bu8EnrHGI0cKUDUz-13" value="" style="shape=image;verticalLabelPosition=bottom;labelBackgroundColor=default;verticalAlign=top;aspect=fixed;imageAspect=0;image=https://static.vecteezy.com/system/resources/previews/001/192/951/original/sun-png.png;" vertex="1" parent="1">
          <mxGeometry x="365.88" y="220" width="72.62" height="72.5" as="geometry" />
        </mxCell>
        <mxCell id="Kzq9Bu8EnrHGI0cKUDUz-14" value="&lt;span style=&quot;font-size: 14px;&quot;&gt;&lt;b&gt;Tiles/&amp;nbsp; &amp;nbsp;&lt;/b&gt;&lt;/span&gt;&lt;div&gt;&lt;span style=&quot;font-size: 14px;&quot;&gt;&lt;b&gt;Orbits&amp;nbsp; &amp;nbsp;&lt;/b&gt;&lt;/span&gt;&lt;/div&gt;" style="rounded=0;whiteSpace=wrap;html=1;align=right;" vertex="1" parent="1">
          <mxGeometry x="480" y="340" width="140" height="95" as="geometry" />
        </mxCell>
        <mxCell id="Kzq9Bu8EnrHGI0cKUDUz-21" value="" style="shape=image;verticalLabelPosition=bottom;labelBackgroundColor=default;verticalAlign=top;aspect=fixed;imageAspect=0;image=https://cdn.pixabay.com/photo/2014/09/30/15/15/orbit-467260_1280.png;" vertex="1" parent="1">
          <mxGeometry x="348.5" y="347.75" width="90" height="79.5" as="geometry" />
        </mxCell>
        <mxCell id="Kzq9Bu8EnrHGI0cKUDUz-23" value="" style="html=1;whiteSpace=wrap;aspect=fixed;shape=isoRectangle;" vertex="1" parent="1">
          <mxGeometry x="490" y="369.5" width="60" height="36" as="geometry" />
        </mxCell>
        <mxCell id="Kzq9Bu8EnrHGI0cKUDUz-25" value="" style="shape=curlyBracket;whiteSpace=wrap;html=1;rounded=1;flipH=1;labelPosition=right;verticalLabelPosition=middle;align=left;verticalAlign=middle;" vertex="1" parent="1">
          <mxGeometry x="660" y="70.22" width="20" height="379.78" as="geometry" />
        </mxCell>
        <mxCell id="Kzq9Bu8EnrHGI0cKUDUz-26" value="" style="shape=image;imageAspect=0;aspect=fixed;verticalLabelPosition=bottom;verticalAlign=top;image=https://ccl.northwestern.edu/netlogo-ccl/netlogo.png;" vertex="1" parent="1">
          <mxGeometry x="700" y="188.25" width="136" height="136" as="geometry" />
        </mxCell>
        <mxCell id="Kzq9Bu8EnrHGI0cKUDUz-27" value="" style="rounded=0;whiteSpace=wrap;html=1;" vertex="1" parent="1">
          <mxGeometry x="860" y="80" width="260" height="360" as="geometry" />
        </mxCell>
        <mxCell id="Kzq9Bu8EnrHGI0cKUDUz-24" value="" style="shape=image;verticalLabelPosition=bottom;labelBackgroundColor=default;verticalAlign=top;aspect=fixed;imageAspect=0;image=data:image/jpeg,/9j/4AAQSkZJRgABAQAASABIAAD/4QBARXhpZgAATU0AKgAAAAgAAYdpAAQAAAABAAAAGgAAAAAAAqACAAQAAAABAAAEsKADAAQAAAABAAADIQAAAAD/7QA4UGhvdG9zaG9wIDMuMAA4QklNBAQAAAAAAAA4QklNBCUAAAAAABDUHYzZjwCyBOmACZjs+EJ+/8AAEQgDIQSwAwEiAAIRAQMRAf/EAB8AAAEFAQEBAQEBAAAAAAAAAAABAgMEBQYHCAkKC//EALUQAAIBAwMCBAMFBQQEAAABfQECAwAEEQUSITFBBhNRYQcicRQygZGhCCNCscEVUtHwJDNicoIJChYXGBkaJSYnKCkqNDU2Nzg5OkNERUZHSElKU1RVVldYWVpjZGVmZ2hpanN0dXZ3eHl6g4SFhoeIiYqSk5SVlpeYmZqio6Slpqeoqaqys7S1tre4ubrCw8TFxsfIycrS09TV1tfY2drh4uPk5ebn6Onq8fLz9PX29/j5+v/EAB8BAAMBAQEBAQEBAQEAAAAAAAABAgMEBQYHCAkKC//EALURAAIBAgQEAwQHBQQEAAECdwABAgMRBAUhMQYSQVEHYXETIjKBCBRCkaGxwQkjM1LwFWJy0QoWJDThJfEXGBkaJicoKSo1Njc4OTpDREVGR0hJSlNUVVZXWFlaY2RlZmdoaWpzdHV2d3h5eoKDhIWGh4iJipKTlJWWl5iZmqKjpKWmp6ipqrKztLW2t7i5usLDxMXGx8jJytLT1NXW19jZ2uLj5OXm5+jp6vLz9PX29/j5+v/bAEMAAgICAgICBAICBAYEBAQGCAYGBgYICggICAgICgwKCgoKCgoMDAwMDAwMDA4ODg4ODhAQEBAQEhISEhISEhISEv/bAEMBAwMDBQQFCAQECBMNCw0TExMTExMTExMTExMTExMTExMTExMTExMTExMTExMTExMTExMTExMTExMTExMTExMTE//dAAQAS//aAAwDAQACEQMRAD8A/GeiiigAooooAKKKKACiiigAooooAKKKKACiiigAooooAKKKKACiiigAooooAKKKKACiiigAooooAKKKKACiiigAooooAKKKKACiiigAooooAKKKKACiiigAooooAKKKKACiiigAooooAKKKKACiiigAooooAKKKKACiiigAooooAKKKKACiiigAooooAKKKKACiiigAooooAKKKKACiiigAooooAKKKKACiiigAooooAKKKKACiiigAooooAKKKKACiiigAooooAKKKKACiiigAooooAKKKKACiiigAooooAKKKKACiiigAooooAKKKKACiiigAooooAKKKKACiiigAooooAKKKKACiiigAooooAKKKKACiiigAooooAKKKKACiiigAooooAKKKKAP/0PxnooooAKKKKACiiigAooooAKKKKACiiigAooooAKKKKACiiigAooooAKKKKACiiigAooooAKKKKACiiigAooooAKKKKACiiigAooooAKKKKACiiigAooooAKKKKACiiigAooooAKKKKACiiigAooooAKKKKACiit/SvCnibXHCaRYT3BPTYhx+eMUAYFFe16X+z38U9TwfsAtwe8zgfoMmu0t/2WvFSjdq+pWdqO+ST/PFAWPmCivq4fs7eFLQf8TTxZaoe4BQfzY08fBL4RRL/pPi9cjrtaPH8jQOx8nUV9Yj4LfBuUEw+Lx+Jj/wFRj9n7wPcj/QfF1sSf7xj/8AihQFj5Sor6mm/Zf1KcFtF1yzuR2zxn8ia5nUP2aPihZfNBDDcj/pnJ/8UBQI+f6K7rVvhl4/0PJ1LSbhAOrKu8fmua4mWGa3cxzoyMOzAg/rQBHRRRQAUUUUAFFFFABRRXQaV4V8Ra0R/ZtpJIP72ML+ZoA5+ivYLX4Q30KCfxHewWMfU5IJ/XAq0dM+EWhn/S7qXUHXsmcH8sCgdjxXvirkOn39yM28Ekg/2VJ/kK9fb4h+DNMGzQtEQ46NJj/65/Wqc/xm8QkFbG3t7cey5/nQBw0PgzxXcMFj0+b5umVx/OtIfDbxsRn7A/5r/jVyf4qeN5/+XzZ/uKo/pWXJ4/8AGUv39Qm/BsUBoWf+Fa+N/wDnwf8ANf8AGj/hWvjf/nwf81/xqj/wnPi7/oITf99Gnp498YxnK6hN/wB9UAMuPA3i62bbLp834DP8s1hz6Xqdrk3NtLHjg7kIx+ldjB8UfG8ByL0v/vAH+Yrct/jL4mQbbyKC4XvuTH8qAPI+hwaK9rHxJ8Kapx4g0SMk9Wjxn9R/Wnf2f8IddGLa4l06Q9mzj9cigLHiVFewXnwh1CWM3Phy8hvo+wBAb9MivOdV8O63orlNTtpIsdyOPzHFArGLRRRQAUUUUAFFFFABRRRQAUUUUAFFFFABRRRQAUUUUAFFFFABRRRQAUUUUAFFFFABRRRQAUUUUAFFFFABRRRQAUUUUAFFFFABRRRQAUUUUAFFFFABRRRQAUUUUAFFFFABRRRQAUUUUAFFFFABRRRQAUUUUAf/0fxnooooAKKKKACiiigAooooAKKKKACiiigAooooAKKKKACiiigAooooAKKKKACiiigAooooAKKKKACiiigAooooAKKKKACiiigAooooAKKKKACiiigAooooAKKKKACiiigAooooAKKKKACiilUFmCqMk9AKAEo9q9z8D/ATxf4siXUtSxplhjJlm4JHqF/xr0k6j8CvhMvl6fF/b+pp1c4KBvqeB+AoCx4V4U+E3jzxi6nSbB1ib/lrKNifmeT+Ar2m3+AvgrwrELr4l6/FEwGTBCQD9O7fpXA+K/2gfH3iMNa2Mw021PAjtxtOPQt1rxS4urm7lM91I0jtyWYkk/nQB9W/8LH+BPgrK+ENDOoTL0lmHGR7tk/yrntU/ad8bTqYtDtrbT4+g2JuI/FuP0r5sooC56Pqvxc+I+tE/btXuMH+FG2D8lxXD3Oq6peHdd3Msh/2nJqhRQA4uzfeJP1ptFFABSgkdKSigCzFeXkDboZXQ+zEV0+m/EDxtpDBtO1S5ix2EjY/KuPooA920r9oz4n6dhbi6S7Qdpowc/jwa7eD9ojw9rifZ/HPhy3uVb7zxAZ/Js/zr5SooC59ZDSP2bvG7f6Bcy6JcP8AwtlVz+O5f5Vjaz+zRrxhN94Lv7fVYOowwDY+oJH8q+Zq3dG8TeIPD04udEvJbZx3jYj9KBk2veEPE/hiYw67Yy25HdlO0/Qjiucr6u8DfHHx9rbjSdb06LW7c8MzqFIHu2MfmK9K1P4d/AzXLiOfUguk3Ux/1Yk2Ase2On8qAsfCdlp99qUwt7CF5nPZBmvUdN+E94kIvvFN1Hp8HUhiN2P5V9D+Mfh/4v8AB2mZ+GtjBPbkZMkeGlx6gHr+dfG2u3+vXd666+8pnU8rLkEfgelAHqf9t/DPwkSujWralcL/AMtJPu5/H+grntV+K/im/Uw2brZxdliGDj69a8yooC5bur69vpDLeSvKx7sSaqUUUCCiiigAooooAKKKKACiiigAooooAu2eo3+nyCaxmeJh3UkV6Rpfxa8Q2yfZtXWO/h6ESDnH1ryqigD28RfDHxngRk6Tdt/3wT/L+Vcpr/wz8R6MpubdBeW/USRc8fSvO66/w9448ReG3AsZy0XeN/mU/gelAzkSCpKsMEdQaSvdBqPgT4g/JqaDTNQbgSL9xj/n1rgfE/gPXfDLGWdPOtz92VOQR7+lAWOJooooEFFFFABRRRQAUUUUAFFFFABRRRQAUUUUAFFFFABRRRQAUUUUAFFFFABRRRQAUUUUAFFFFABRRRQAUUUUAFFFFABRRRQAUUUUAFFFFABRRRQAUUUUAFFFFABRRRQAUUUUAFFFFABRRRQB/9L8Z6KKKACiiigAooooAKKKKACiiigAooooAKKKKACiiigAooooAKKKKACiiigAooooAKKKKACiiigAooooAKKKKACiiigAooooAKKKKACiiigAooooAKKKKACiiigAooooAKKKKACinIjyOI4wWZjgAckmvpXwL8FLO004eM/ihMLHT0G9YWOHf0z359KAPKPA3w08VeP7sQ6LARCD88z8Iv496+hFX4TfA6L97t1vXAOnBVG+vQfzriPHfx1murM+GPh7F/ZmmINu5Bh3H1HQGvnV5HlcySEsx5JPJoGen+Ofi94x8dSmO+nMFr/DbxEqgHvjr+NeW0UUCCiiigAooooAKKKKACiiigAooooAKKKKACiiu/8ACXw91jxQwuCPItR1lbuPb1oA4qzsrvULhbWyjaWRuAqjJr2nRPhfY6VbDWPHM6wxjnys9fYnv9BWtd+JfCHw6t207w1Gt1e9GkPIB9z/AEFeJa54j1fxFcm61SYyHsOw+goGer658VbawtzpPgmBbeJePMxg/gK8XvL+91Cc3V7K0sjHJZjk1UooFc9K8G/Fnxt4IkUaVds8A6wyEsh/A9Pwr6Ftfif8KPitbrpvxDsUsLxhgTqOM+oYcj8a+MKKAufTHjL9nHWLGA6x4GnXVbJhuCgjeB7EcNXzfdWl1Y3DWl7G0UqHDK4IIP0Ndz4M+J3i/wAC3Ak0W6byv4oX+ZD+Br6UtfGvwn+NNuumeM7ddM1NhhZhwCfZ/wChoGfFVFe5/EH4EeKfBgbUdOH9o6f1EsYyyj/aA/mK8M6HBoEFFFFABRRRQAUUUUAFFFFABRRRQAUUUUAFFFFAB06V6H4X+Imq6Cv2G8/0uzbhopOcD2zXnlFAHteo+DdC8X2zax4HkCy43PatwR9P84rxy6tLmxna1u0MciHBU1PpuqX+kXS3unyNFIhyCDXs9rqvh34l2y2GuhbTUwMJMOA/1oHueE0V0HiLw1qnhm+az1FCBn5X/hYeoNc/QIKKKKACiiigAooooAKKKKACiiigAooooAKKKKACiiigAooooAKKKKACiiigAooooAKKKKACiiigAooooAKKKKACiiigAooooAKKKKACiiigAooooAKKKKACiiigAooooAKKKKAP/9P8Z6KKKACiiigAooooAKKKKACiiigAooooAKKKKACiiigAooooAKKKKACiiigAooooAKKKKACiiigAooooAKKKKACiiigAooooAKKKKACiiigAooooAKKKKACiiigAooooAKvabpt/q97Hp2mxNNPKdqooySal0fSNQ13UYtK0uMyzTHaqgV9bwReGv2efD4uboJe+JLpPlXgiLP8AID9aAK2h+EvB/wAENIj8UeOtt3rMg3QWowdp7cfzNfPvjz4jeIviBqRvNWkKwqf3cK8Ig9hXOeIvEeseKdUk1jWpmmmlOSSensB2ArDoAKKKKACiiigAooooAKKKKACiiigAooooAKKKKACpYYJrmVYLdS7scBRySa0tF0PUdfvlsNNjLu3X0A9Sa94itfDHwpsBcXe271RxwPT/AAFAzH8O/DvS9Bsx4h8cyBFX5lhJ/n6n2rn/ABf8Tr3V0Ol6GPslmvygLwWH9B7VxfiPxRq3ie8N1qUhI/hQfdUewrnKAv2FJJOTSUUUCCiiigAooooAKUEg5FJRQB7d8PPjl4o8ElbC7b7fp/QwynJA/wBk9q9n1PwF8N/jXZPrngKZbDU8bpIDxk/7S/1FfFVaOlavqWiXqahpMzwTRnIZDg0Aanijwjr/AIO1FtM1+3aGQdD/AAsPVT3rmq+xvCvxh8KfEbTl8I/FeBBIw2pdYwM9iT/CfevMvib8DtZ8GA6xohN/pb/MsicsgP8Aex1HuKB2PBqKKKBBRRRQAUUUUAFFFFABRRRQAUUUUAFFFFABTlZkYOhwRyCKbRQB7P4c8Y6d4isV8LeNfmQ8RT/xKe2TXE+L/B194Uvdj/vLd+YpR0I/xrjunSvXfB/jCyvbL/hEvFv7y1k4jkbrGe3PpQM8iorsfGHhC88LXu1v3ltJzFKOhH+NcdQIKKKKACiiigAooooAKKKKACiiigAooooAKKKKACiiigAooooAKKKKACiiigAooooAKKKKACiiigAooooAKKKKACiiigAooooAKKKKACiiigAooooAKKKKACiiigAooooA/9T8Z6KKKACiiigAooooAKKKKACiiigAooooAKKKKACiiigAooooAKKKKACiiigAooooAKKKKACiiigAooooAKKKKACiiigAooooAKKKKACiiigAooooAKKKKACiiigAq7p2nXurX0WnafGZZpmCqq9STVREeRxHGCWY4AHevr7wfoOj/BPwgfHfiuMSatdLi1gPVcjj/wCvQBagt9A/Z58MC7ugl14kvE+VevlA/wBB+tfJOs6zqOv6lLquqytNPMxZmY+tWfEniPVPFWsTa3rEhkmmOTnoB2A9hWFQAUUUUAFFFFABRRRQAUUUUAFFFFABRRRQAUUUUAFdZ4U8H6r4rvBDZrtiB+eU/dX/AOvWl4I8C3viy6818xWkf35D39hXeeK/Hlh4dsz4U8GAIqDa8q+vfB7n3oHY0NY8R6D8N9OOg+GAst6RiSXrg+pPr7V8/wB7fXeo3LXd7IZJHOSxOagd3lcySEszHJJ70ygGFFFFAgooooAKKKKACiiigAooooAKKKKACvefhh8b9X8GEaPrQN9pb8NG/JQH+7n+VeDUUAfX/jj4PeH/AB1pbeOPhRIj7xuktl4574H8J9q+R7q1ubK4e0vI2iljOGVhgg+4rsfA3xA8Q+AdUXUdFlIUn95EfuOPQivqbUNE8EftC6KdX0IrY67Cvzx/3j7+o96B7nxDRW34g8Pax4X1OTSNbhaCaM4II4PuD3FYlAgooooAKKKKACiiigAooooAKKKKACiiigAooooA9k8GeKbLV9PPgzxSQ0MgxDI3VG7c1wHinwxfeFtSaxuxlTyj9mX1rmwSpDKcEV7n4d1Ky+IGiHwrrZAvYV/0eU9TjtQPc8Loq/qem3WkX0mn3qlZIzgg/wA6oUCCiiigAooooAKKKKACiiigAooooAKKKKACiiigAooooAKKKKACiiigAooooAKKKKACiiigAooooAKKKKACiiigAooooAKKKKACiiigAooooAKKKKACiiigAooooA//1fxnooooAKKKKACiiigAooooAKKKKACiiigAooooAKKKKACiiigAooooAKKKKACiiigAooooAKKKKACiiigAooooAKKKKACiiigAooooAKKKKACiiigAooooAKKK9O+FPw/uPiD4ojsGBW0hxJcP2CDtn1NAHp/wW8B6Xp+ny/FHxsAljZgmBHH329cHrz0ryL4j+PdR+IHiGTVbslYV+WGPsiDpXovxy+INrq15H4H8MkJpWmfuwF6O68Z+g7V89UDCiiigQUUUUAFFFFABRRRQAUUUUAFFFFABRRRQAV6D4F8DXXiq68+fMVlEcu54zjsKh8DeCrrxZf5fKWkRzI/9B712vjvxtaWFp/wiHhP93BENsjr3x2H9TQOw3xv47tbK1/4RPwjiK2jGx3Xv6gf1NeJEknJpCc8migQUUUUAFFFFABRRRQAUUUUAFFFFABRRRQAUUUUAFFFFABWvoeu6r4c1KPVtHmaGeI5DKf0PtWRRQB9w6P4l8FftA6IPDnidVtNajX93IMDc3qp/mK+UvHPgTXfAOsNpOtR4GT5cg+66+oP9K5O1u7mxuEu7RzHJGQyspwQRX2V4L8e+HPjLoQ8B/EMKl+FxBcHALHsQezfzoGfFtFegfET4d618O9bbTNSUtCxJhmA+V1/x9RXn9AgooooAKKekckhxGpb6DNaUOh6tPzHA2PfigDKorqofB+rycvtT6mrq+Ddozc3Kr/n3NK47M4iiu6/4R3QYv9feA/Qij7B4Qi+9OWx7mi4WOForutvgtDzub86PN8Gf882/X/GgfKcLRXdeb4M/55t+v+NG7wW38LD8/wDGi4WOFqzaXc9jcpd2zFHjIII9RXZfZvBsg4kZfzpP7E8Mzf6m72/U/wCNFxWO91e3tviR4ZGuWK41OzXEqDqwHfFeEspUlWGCOtev+E7b/hHNXTUNPvFdD8rocYZT1HBqz8QvAc32j/hIvDsfmWs43Mq4+Vj7UXG0eLUVamsby3OJ4mX6iqtMkKKKKACiiigAooooAKKKKACiiigAooooAKKKKACiiigAooooAKKKKACiiigAooooAKKKKACiiigAooooAKKKKACiiigAooooAKKKKACiiigAooooAKKKKAP/1vxnooooAKKKKACiiigAooooAKKKKACiiigAooooAKKKKACiiigAooooAKKKKACiiigAooooAKKKKACiiigAooooAKKKKACiiigAooooAKKKKACiiigAopMgda73wv8AC/4ieNHVPC+jXV2G6OsZCf8AfbYX9aAOKtrae8uEtbZS8kjBVUdSTwK+u/ENxb/A/wCGMfhywYDWtYXdMw+8ikc/l0Fer/Av9jvxvpGvJ4q+IKwWUduu6KMvvbce7YwBj612fjb4E/AqXxFP4k+KvjVJZGPEEUqKEUdFATc3FA7H5aMxYlmOSaRAZG2RjcfQcmv0e/t/9hPwSdtlp0usSp3ZGkB/7+MB+lK37YPwa8Or5XgzwPEAv3S/lp+gUn9aAPz/ALHwp4p1PH9m6Zdz56eXC7fyWu0sfgf8YNSANn4cvmB7mIr/AOhYr6r1D9vrxbyNB0CwtR23BmI/IgfpXGXv7dHxuuCRavaW4PZIFP6nNAjy+2/Zg+PF0Mx+HZx/vMi/zatmH9kX4/ynnQyn+9LH/RjV66/bH+P9wcprPleyRIP6ViTftV/HucYfxDOP90KP5CgZq/8ADH3x9/6Aw/7/ACf41FL+yH8f4gCNE3/7ssf9TWN/w1D8d/8AoY7n8x/hU0P7VHx5hJK+Ibg59cH+YoAZcfss/Hu2yH8PTHH914z/ACaucvPgD8abAE3Phq9AHcIG/kTXeW/7YH7QFvgf24zgf3o0P9K6Wz/bf+OttgS3VtMP9uBD/SgR8333w+8d6Zn+0NFvocdS0EmPzxiuXntbq1JF1E8RHXepX+Yr7msf2+PiTHhdU0vT7od8oyn9Dj9K6qD9ubw5qSiPxT4Mtpx3KMP5MpoGfnOCD0NLX6Ot8dv2Q/FnHifwebR26skSNj8V2mhfBv7DHjT/AJBeqS6RI3QM0kePwbcv50AfnFXV+EPCl94s1NbO3BWJeZH7KP8AGvu2X9ifwJ4mBl+HPjSC5B5COY5D/wCOEH9K1Ne/ZZ+KPgjwkdM8BwwX0zj55VfY59SAw6+nNAWPk3xv4rsPDWmjwZ4UwgUbZZF/UZ9fWvBiSTk9a9J8TfCP4peF5XfxHod5DySz+WXX67lyK82YMjFHBVh1B4P5UCEooooAKKKKACiiigAooooAKKKKACiiigAooooAKKKKACiiigAooq3bWF5eNtto2f3A4/OgCpUkM0tvKs8DFHU5BHBBFdbbeDrojzL6RYV79zVzyvCmlffJuHH4/wD1qVx2PpP4feONE+Lvh7/hXvxBXN0FxBcEckjpz2YfrXhPjD4P+JfCOtPp91tMBJMU3Z1/x9a55/GklswOkwiEqcq3cflX1B4C8e6R8YvDz/D/AMbsI9Q24gnHBY9sH+8P1pj0PmAeGdKtBu1K6H0BA/8Ar04XXhGw/wBTGZmHfGf51B488E614D16TRtYBPJMcnZ17Ef1riqVhXO4fxekY22VsqD3/wDrVmzeLNYl+64Qf7IrmaKLBdmjLq2pT/62Zz+NUmllf7zE/jUdFMQUUUUAFFFFABRRRQAUUUUAODupypIr2/4U+KgzyeE9WfMNyD5ZJ6N6fjXh1SwTS20yzwkq6EEEdiKAR6J4nn17wnrcul3LCWMHMZYZ3KelYv8AwkGm3XGo2an3Xg161rkUXxG8Cx65bDN9ZDDgdTjqPx6187UWG2dd9h8NX3/HrO0DHs/Sq1x4W1GNfMtis6+qGuaq1b313aNut5GU+xpBcimgmt38udSh9DxUVdXF4maVfK1WFZ19cYNSf2Zoeqc6bN5Ln+B+lMLHIUVqX2jahp3Nwh2/3hyKy6BBRRRQAUUUUAFFFFABRRRQAUUUUAFFFFABRRRQAUUUUAFFFFABRRRQAUUUUAFFFFABRRRQAUUUUAFFFFABRRRQAUUUUAFFFFABRRRQB//X/GeiiigAooooAKKKKACiiigAooooAKKKKACiiigAooooAKKKKACiiigAooooAKKKKACiiigAooooAKKKKACiiigAooooAKKKKACiiigAor3r4W/s3/FH4rSJNo9kbSxPW6uQUjx6qOrfhx719YRfDD9l/wDZ6jW7+I+oDxFrMfP2ZcOA3p5YO0f8CJNAWPhfwR8KfiH8RbgQeD9Knu1JwZAu2MfV2wPyr6/0D9iS00GyXW/jP4jt9JgAy0UTAN9N79fwWsLxx+234rurZtE+GFhD4fsVG1GRQZdv1xhfwFfHviHxd4n8WXjX/iS+nvZWOS0rlv50DPvz/hYf7HvweXyfB+jt4ivo+BPIu4E+u+TP6LXPv+2X8UvGusweFfh9YWujJcuEQxpvdV7nJ44HtXwDX1v+zxoFnoGj6j8UtbAWK1jZYSfYfMR9elAHaftOfFzxHHp9p4BXUZZpyqyXUm4gnHQHHqea+F5JZJW3SsWPqTmtzxRr934o1+6169YmS5kLc9h2H4CsCgTCiiigAooooAKKKKACiiigAooooAKKKKACpreCa6mW3t1Lu5AUDuTUNe9eAfD1l4Z0l/HHiIYKrmFD19j9TQBt2UkPwi8M/ai5OqXQ4APT/wCsK4rRPj58YPD1ybnStfu0yd20yFl/75ORiuA8TeIr3xNqsmpXh6nCr2VewFc9QNs+3fDf7dvxU05Ft/EltZ6tH38xNjH8VwP0r0WP9pT9m34ir9n+JvhFbWR/vTRIsmD65G1q/N2igLn6Rt+z9+yz8TQZfht4o/s64k+7DI4wD6bZcH8jXl/i79hn4saGrXPhqW21mDGVMbeW5H0OQfzr4vSR423xkqR3BxXqPhL42/FTwQy/8I5rdzCinPllyyfirZFAHM+J/APjXwZObfxTpdzYle8kZC/gw+U/nXI9a++vDH7dOuSwjTfiZotrq9ueHdVCOR7ggqfyrs/s37GHxtGISfDOpS/9sRuP0yh/HFAH5pUV90+Mv2GfGVpbHVfhzqVvrloRlRuCuR7EEqf0r5A8UeBvGHgq6Nn4r02excHH71CFP0bofwNAjlaKKKACiiigAooooAKKKKACirFva3N2/l2yFz7V1tr4TWJPP1eURL6A/wBaLjscYiPI2yMFiew5rpbHwpqV1h5wIU9W6/lWu+uaNpK+VpMIdh/ER/k1zN9rupX5IlkIX+6vApBodN9k8MaNzcN9okHbr/8AWqpc+L5QvladEsS9j3rjSSeTSUWC5dudRvbw5uJGb6mqVFFMQVYtbq4sblLu0cxyRkMrLwQRVeigD7c8N65oXx/8IN4T8SFYtatUzFL3bA+8P6ivkLxN4a1XwlrM2h6xGY5oTj2YdiPY1T0bWNQ0HUotW0uQxTwsGVh7V9m3tvov7RPgf7daBINfsF+Yd2P9Vb9DQM+H6KtX1jd6beSWF9GYpoWKurcEEVVoEFFFFABRRRQAUUUUAFFFFABRRRQAUUUUAemfC/xMNC10Wd0f9Gu/3bg9AT0NU/iR4Z/4RzxE4hH7i4/eR+nPUfhXAKxVgy8Ecivoa5C/EL4cC5HzX2njn1O0f1FAz54ooooEFAJHIoooA3bDxDf2Q8pj5sf91ua1Ps2h62C1sfss5/hP3Sa46lBIORQO5fv9LvdNfZdJgHoRyDWfXR6f4hmgT7LfL58J4w3UfSrF1odveRG80Nt69TGfvCkFuxylFOZWRijjBHUGm0xBRRRQAUUUUAFFFFABRRRQAUUUUAFFFFABRRRQAUUUUAFFFFABRRRQAUUUUAFFFFABRRRQAUUUUAFFFFABRRRQAUUUUAf/0PxnooooAKKKKACiiigAooooAKKKKACiiigAooooAKKKKACiiigAooooAKKKKACiiigAooooAKKKKACiiigAooooAKKKKACinxxvK4iiUszHAAGSSewFfbvwf/ZLe90seP8A4z3A0bRYgJPKc7JJF6/Nn7oPp1NAHzN8OfhP45+KmqrpnhCyeYZw8xGIox6s3T8BzX3Xp/wp+AH7M9kmu/FO8TXdeQbktFwQre0fQfVq4z4k/taaT4Z0pvAHwAsk0ywiHlm8CgO2OCUHbPqea+D9S1TUdZvX1HVZ3uJ5TuZ5CWYk+5oGfVXxV/a/+IPjqN9F8MY0LSsbVhtzh2X/AGnH8hgV8lzzzXMrT3DmR2OSzHJP4moqKBBRRRQBf0vTrnV9Sg0u0XdLcOqKB6scV9afHXUrfwR4G0r4XaS2CY1efHcD1+rc1x/7NfhWPU/FM3ii+H+jaXGXyem8jj8hk15T8TfFUvjHxrfa0xzG0hSMeiLwKBnBUUUUCCiiigAooooAKKKKACiiigAooooAKKK1dF0i713U4tMsxl5Dj6DuaAO1+HHg/wD4SLUvtt8MWdt8zk9GI5x/jUvxJ8Y/2/qH9m2BxZ23yqB0Yjv/AIV2XjjV7TwXoEXgvQziVl/fMOuD1/E18/UDYUUUUCCiiigAooooAKKKKAPQ/BnxX+Ifw/uRc+FNVuLXH8AYlD9VPBr7D8K/tvLqtoNE+MWhW+q27Da0saqGx6lCCp/DFfnzRQB+mE/wW/Zf+OUJvPhhq40TUZOfs7HaN3p5bHH/AHya+ZPiT+yl8W/h0z3Js/7Tsl5E9qC3HqU6j8M184QXFxayie2do3XkMpwR+Ir6b+G37WvxX+H+yzuLr+1bFeDBdfPx6BuooGfMMkckMhhmUo6nBVhgg+4NMr9M4vH/AOy3+0PGLXxxYjw9q8gwJx8oLe0i/wDswryX4jfsVeM9CtW134d3Uev6eRuUIR5u32x8rfhQFj4morUvdE1jTdQbStQtZYLlDho5FKsD9DXQ2XheOGP7VrMgjQc7c0Alc5O2tLm8fy7ZC59q7C18MWlnGLnWpQo67QaLrxLaWMf2XRYgoH8RFcfdXlzeSGW5cuT60h6I7C58T21mn2bRYgoH8RH9K5G6v7u9fzLlyx96qUU7CbuFFFFAgooooAKKKKACiiigArrvBPjHVfA+vw65pT4ZD869nXuDXI0UAfZPxS8H6T8UfCsfxR8FKDcqv+kwr1OOoI9R+or42IIODXsvwc+J1x4A10Q3hL6ddEJPH2Gf4h7iup+Ovwzg0W5Xxv4YAk0u/wAOdnRGbnP0NAz5xooooEFFFFABRRRQAUUUUAFFFFABRRRQAV6l8KPEA0nxANPuD+4vB5bA9M9jXltSQyvBKs0ZwyEEH3FAHY/EDw+fD3iae1UYikPmR/Ru34VxVfQXjeJPF/gS08VW4zNbgCTHXHQ/418+0DYUUUUCCiiigAqza3dxZSia2Yqw9KrUUAdor6f4kj2SYgux0PZq5W8srixmMFypUj9fpVYEqQy8EV11nqdtq0I03WeCPuSdx9aQ9zkKK0tT0y40y48qXlTyrdiKzaYgooooAKKKKACiiigAooooAKKKKACiiigAooooAKKKKACiiigAooooAKKKKACiiigAooooAKKKKACiiigAooooA//R/GeiiigAooooAKKKKACiiigAooooAKKKKACiiigAooooAKKKKACiiigAooooAKKKKACiiigAooooAKKKKACiiigArY0Dw/rPijVodD0C3e6urhtqRoMkn+g960vBngvxF4/8QQeGfDFu1xdTnAA6KO7MewFfoxJL8Of2MPCHkwCPVfGd9HyTg+Xkf+OqD26mgCh4T+Fvwx/ZY8PRePvi5JHqHiF13W1muG2N6KPbux/Cvj/4yfH3xt8Y9TMmrSm3sIyfJtIziNR7jufc15z418ceJfiDr03iPxTctc3Mxzljwo7BR2ArkqACiiigAooooAKKK6zwL4fk8UeLrDQ4xkTzKG/3Qct+lAH1Ch/4Vf8As97h8l9rX5/vP8Fr4yr6f/ac8QRzeIrPwlZHEGmwjKjoGb/AYr5goGwooooEFFFFABRRRQAUUUUAFFFFABRRRQAdeK+hvCdja/D/AMKyeK9VUfa7hcRKeoz0H9TXB/DTwoPEGr/bLwf6La/O5PQkdBTfiT4sPiHVza2h/wBFtvkQDocdTQNdzhNRv7nVL2S/u2LSSsWJNUqKKBBRRRQAUUUUAFFFFABRRRQAUUUUAFFFaOn6XealJst147segoAzxnPHWvon4S/FD4q/DqdbrRdSeGzHLQTHfGw/3TwK82W20bw2gkuSJrjsPT/Cua1PX77UmKsdkfZVpFbbn6X2P7QvwH+LpXQfirYR2N6w2i8Rfkz67h8w/UV5X8U/2P8AxFPat4s+FWopr+nONyxBgXA9FI4b9DXwRXrHw5+NfxF+Ft2s/hXUJI4s5aBzuib6qeKYrnm+qaTqmh3r6brFvJa3EZw0cqlWH4Gs+v0x0n43/Af9oWyTw/8AGTTY9L1RhtS7UYXd6hxyv48V458Vf2OfFvha2bxH8PZhr2ksN6mIgyqv4cN+FAWPjGipp7ee1ma2ukaORDhlYEEH0IPNQ0CCiiigAooooAKKKKACiiigAooooAK+sPgd4+sNY0+T4W+MiJLW6Urbs/8ACT/Dz+nvXyfU1vPNazpcQMVdCGUjqCKAO6+JPgO/+H3iWXR7kEwsS0MnZkPT8RXn9fbljNYftAfDVtPuSq67pi5Vu7YHB+h6Gviy9s7nT7uSxvUMcsTFXU9QRQBWooooAKKKKACiiigAooooAKKKKACiiigD3T4R6jFf2174RvDlLhCyA+uMGvG9V0+XStSn06YYaFyv5dK0fCurvoev2upIcBHG76Hg16B8Y9IS31uLWrcfu7xASR03D/61A+h49RRRQIKKKKACiiigAooooA6vTNTgvYP7J1blT9xz1U1janplxplwYpeVP3W7EVm12Gm3kOr2o0fUj8w/1T9wfSkPc4+irV5aTWNw1vOMFf1qrTEFFFFABRRRQAUUUUAFFFFABRRRQAUUUUAFFFFABRRRQAUUUUAFFFFABRRRQAUUUUAFFFFABRRRQAUUUUAf/9L8Z6KKKACiiigAooooAKKKKACiiigAooooAKKKKACiiigAooooAKKKKACiiigAooooAKKKKACiiigAooooAK6Lwp4V1zxrr1v4a8OQNcXd0wVFUfmT6AdzWLZ2lzf3UdjZIZZpmCIijJZjwABX6a+FtH8OfsefC8+MfEiJceLdXj2wwnGY8jIUegXqx7nigCXUdR8GfsZeABo+leVf+MtSjzI/B8vI6n0Vew71+a3iDxBq/ijV59d12drm6uGLu7nJJP8ASrPivxTrfjTX7nxL4hnae6unLuzH17D0A7CudoAKKKKACiiigAooooAK+of2YdEjfxBfeLLsfutOgOCegZv/AKwNfL1fY3hz/ihP2c7zV/uXGqkhT3+c7R+maBo+YPGeuS+JPFV/rcpybiZmH0zgfpXMUUUCCiiigAooooAKKKKACiiigAooooAKs2dpPfXUdnbLukkYKo9zVavbvhZodvZQT+NNWGIbZT5efXuf6CgEbHim7g+H/g+Lwxp7AXdyuZWHXB6n+lfPJOeTW/4m1248R6zNqdwfvn5R6L2FYFA2FFFFAgooooAKKKKACiiigAooooAKVVZjtUZJq5Y6fdahMIbZcnuewrtUt9J8MxCW5IluD0HpRcaRnaZ4aGz7Zq7eXEOcdz9ak1DxLHBH9i0ZRGg43f4VganrN5qkmZjhOyjoKyaVu4X7D3keRi8hJJ7mmUUUxBRRRQAV7x8KP2ifiN8JrlU0i6NxY5+e1mJaMj2B6H6V4PRQB+oCaj+zr+1ZaiDUUXw94lYcNwu5vZujD2PNfIPxd/Zu+Inwjne4v7c3unZ+S7gBK47bh1X+VeAxSywSCaFijqcgg4INfY/wg/a98T+ELdfDPxAj/tzR2GwrLzIi9OCeo9jQM+NKK/Sfxb+zp8L/AI5aS/jf4B30VvdsN8tixwNx5wV6ofpxX5/eLPB3iXwPq8mh+KbOSzuYyRtcYB91PQj6UCOZooooAKKKKACiiigAooooAKKKKAO18AeM7/wL4lg1yyJwpxIvZkPUGvffjt4N0/xDpNv8V/CYDwXKg3AXt7n3HQ18m19Qfs/+O7VJJvh14kIex1AFY9/RXPGPoaBny/RXovxQ8CXXw/8AFc2kSA+Q5LwN6oe34V51QIKKKKACiiigAooooAKKKKACiiigAr6Bvz/wlvwmjuvvT2HB9fl/+tXz9XuXwdvUuhf+Grg5W4jLKD6jg0DR4bRV7U7J9O1GewkGDC7L+RqjQIKKKKACiiigAooooAKVWZGDKcEUlFAHaZTxJp2D/wAfcA/76FcYysjFWGCOCKtWV5NYXK3MJwVP51v67ZxXMKa1ZD5JPvj0akPc5WiiimIKKKKACiiigAooooAKKKKACiiigAooooAKKKKACiiigAooooAKKKKACiiigAooooAKKKKACiiigD//0/xnooooAKKKKACiiigAooooAKKKKACiiigAooooAKKKKACiiigAooooAKKKKACiiigAooooAKKKKACiivfP2dfhBc/F74gQaZMpGm2hE15J2CA/dz6t0oA+iv2YvhloXgPwvcftDfE1AltaITYRSDlj2cA9STwv518lfF34pa78XPGVx4p1lyEYlYIs/LHGOigfzr3z9rb4yW3inXI/hr4QYR6Hon7oLHwski8Z47L0FfGVABRRRQAUUUUAFFFFABRRRQBYs7Z7y7itIhlpXCD6k4r62/aKuU0DwloHga2OBHGJHA/2RtH65rw34PaN/bvxH0uyIyqyiRvonzf0rrf2jda/tb4lXFuhylmiwgehxk/qaBng1FFFAgooooAKKKKACiiigAooooAKKKKANXRNJuNc1WHS7YZaVgPoO5r2H4n6vb6Lplv4I0o4SNQZcfyP86k+GunW/h3QrrxvqYxhSsQP9Pqa8V1XUbjVtQl1G5OXlYsaBmfRRRQIKKKKACiiigAooooAKKKUAsdo5JoASui0fw/caifOl/dwjqx7/StPS/D8NvF/aOsnag5Cn+tUtY8RSXg+y2f7uEcYHBNK47dzTvtbs9JhNhoqjcOC9cRLLJPIZZSWY9Sajopg3cKKKKBBRRRQAUUUUAFFFFABRRRQB1PhHxr4n8C6vHrfha8ktLiM5BQkA+xHQiv0F8JfHz4V/tAaRH4H+OtnFa6gRtivVAVS3Y7uqn9K/NGlBIORQB9W/Gz9lXxb8Mw3iDw8Tq+iP8yzRDcyKem4DqPcV8o19WfBP9qfxb8Miuha/nVtEf5Xt5TuKKeuwn+XSvf/ABx8APhv8etEk+IfwGuY4L0jfNZHCgt1IK/wt79DQM/NSitrxB4d1vwrqkui+IbaS0uYSQySAg8enqPesWgQUUUUAFFFFABRRRQAVLBPLbTJcQMVdCGUjqCKiooA+2blLf48fCcXSYOtaSOfVsD+TD9a+KZI3ikaKQbWUkEHsRXqXwg8ezeA/FsN45P2Sc+XOvYqe/4V2n7QfgKHQdcTxZoyg2GqDflegc8/rQM+dqKKKBBRRRQAUUUUAFFFFABRRRQAV2PgLVP7I8V2d0ThS4Rvo3FcdUkUjRSLKnVSCPwoA9L+LeljT/Fsk6D5LlRIPr0NeYV718UUGr+FdK8SR8naFY/Uf4ivBaBsKKKKBBRRRQAUUUUAFFFFABXTeHr2MM+l3fMU/HPY1zNKpKkMvUUAi5qFnJYXb20g+6ePcVSrsNSUavo8eqJzLD8sn09a4+gbCiiigQUUUUAFFFFABRRRQAUUUUAFFFFABRRRQAUUUUAFFFFABRRRQAUUUUAFFFFABRRRQAUUUUAf/9T8Z6KKKACiiigAooooAKKKKACiiigAooooAKKKKACiiigAooooAKKKKACiiigAooooAKKKKACiiigCWCCa6nS2t1LySMFVR1JPAFfpjrdxbfsrfs6xaFaEJ4m8SJmRh95Aw5P/AAAHA968J/Y7+GEPjHx83jDW1A0vQF+0SM33TIOVH4Yya8z/AGiPijcfFX4mXutK5NlbsYLVewjQ4z/wI80DPDXd5HMkhyzHJJ7k02iigQUUUUAFFFFABRRRQAUUUUAfT37LmmLN4uvNalHyWduefQt/9YV4N4x1NtZ8VahqjHPnXDt+GeP0r6b+BijQvhV4k8UN8pZWRT/ur/ia+QWYuxdupOaBjaKKKBBRRRQAUUUUAFFFSQxTXMohtkaR26KgLE/QDmgCOivc/Bf7M/x8+ILJ/wAIr4T1CdH6SPEYk+u6TaPyr668F/8ABK79pLxHGtz4hax0SI8nzpDI4HuqjH60AfmlWxoGkTa7q8GlwDmVgCfQdzX7A23/AATS+CngmMXPxh+Jttb7eWjheGI+4wzO35CvRPDPw4/4Js/Bywk8TnVJ9eMKkGXdJLnHUAfKpoA/JH4razb2MFt4L01gI7ZQZAPXsK8q03w34j1lguj6fdXZPA8mF5P/AEEGv2Rvv21P2FvB949x4J+HH2+bORNLFFGSfckOa53Uv+Cr509TD4F8A6bZIOFMp3Ef98BRQDPzj0T9m34++ISP7I8IapIG6FrdkH5vtFew6J/wT8/az1wAx+Fntgf+fiWNP5Fq9o1v/gqx+0jfqY9Hi03Tl7eVAGI/77zXjutf8FCP2staJL+KprfPaBVj/wDQQKAPTNK/4JY/tS6iAbmLTrXP/PS4J/khr0Cx/wCCRnxvkAOqa7pdr643vj/0Gvh/Vv2qv2itbJOo+MdUfPUC4cD9DXn+ofFf4maqc6jr1/Nn+9O5/rQB+nsX/BJnWLYf8Tvx/pkB7/IB/wChSVeX/glr4JgH/Ew+KWnJjg48kc/jJX5JTeKfEtz/AMfGoXD/AFlY/wBazW1HUHOXuJD9XP8AjQB+wY/4Jm/Bq2Hl6h8V7IP14e3HH/fZp3/Dtb4Gf9FXs/8Av5b/APxVfjsbu7PJlc/8CNW7GLUtQnEFu7knqdxwKAP2AT/gml8D5W2x/Fa0Y+ge3P8A7NWxp3/BM74UWEnnx/E2wdj9ze0HH/j9fk899B4WtvLjkaW5YcnJ4rh7nWNTu5jPNPIWP+0aW49j9itY/wCCYNhrku6w+JumyAdExGQPT7slcxN/wSO+IE4LaJ4x0y69B5bfzDn+Vfk5FrOrwHMN1Mv0dh/Wta38b+MrQg22q3ceP7szj+tMR+kGo/8ABJb9ou2BbTr/AEq5A/6aOh/9BNeb6v8A8Ey/2sNMyYNKtbsD/nlcDP8A48or5X0747/GbSMf2b4n1KHHTbcOP616VpH7aX7UOiACx8ZajgdnlLfzoAfrv7FP7Ufh7Jv/AAdeuq/xRbJB/wCOtn9K8g1n4PfFjw9k634a1O2A6l7WXH5hTX1toX/BS79q/Riom1qK9UdRcQRvn8cZr2LRv+CtPxiiwvifQNJ1JehzGyE/kaAPynuba5s3MV5G8LDqHUqR+BqAEHkV+zkH/BTP4OeKYhb/ABL+GVrcBvvGEow/J0J/WrCfGD/gl98Sf+Ro8Jy6HNJ1aOHaFz/tRMD+lAH4uUV+0J/ZV/4J3fEtt3w/8ftpM0v3I5ZsAfUTr/Wuc1v/AIJOa1qURvPhb420/V4zyocA5Hb5o2I/SgD8gaK+3vG//BO/9qrwUXc6ANTiT+OylWTP/AW2mvlHxN8PfHnguc2/i3Rr3TmXg/aIHQfmRj9aAOPopAQelLQAUUUUAFdp4G+IHiv4da3Hr3hS7e2mjPIB+Vh6MOhBri6KAP1E0T4kfBz9q3RU8IfEaCPSfEO39zcDChn6fK3v/dNfFvxm+AXjX4M6o0WrRG409z+5u4x8jDsG/umvEYZpbeVZoGKOpyGBwQa+8vgz+1RZXulL8M/jjENR0qceUtzINzRg8Df6gevUUDPgmivtP46/srXHhizPj74WP/augTjzNsZ3tEp54x1X9RXxZ04NAgooooAKKKKACiiigAr7N+FmqWnxV+HF58NtbYNd2qFrdm67R0x9DXxlXX+BfFd34M8T2uvWh/1TjePVT1H5UAc/qum3ejalPpV8pSa3cowPqKoV9VftD+FLO/hs/idoADW18i+cV7Ejgn+Rr5VoAKKKKACiiigAooooAKKKKACiiigD33Sf+J/8IbmzPL2bEj8ORXgVe7fBydbq31PQ5ORLHuA/Q14jdwNbXUts3WN2X8jQNleiiigQUUUUAFFFFABRRRQAUUUUAdJ4avEiuzZz/wCrnG0/XtWRqNo1jeSWzfwnj6VURijh16g5rq9fQXtlb6xGOWG1/qKQ+hyVFFFMQUUUUAFFFFABRRRQAUUUUAFFFFABRRRQAUUUUAFFFFABRRRQAUUUUAFFFFABRRRQAUUUUAf/1fxnooooAKKKKACiiigAooooAKKKKACiiigAooooAKKKKACiiigAooooAKKKKACiiigAooooAKcqs7BEGSTgCm177+zP8Pv+FjfF7S9KnTda2z/arj02Rc4P1OBQB9W+LZR+zv8Asr2nhWAiLWvE3zTY4YK4y3vwuF/GvzVr6t/bC+II8bfFy406zfdZ6OotYgOm4cufz4/CvlKgbCiiigQUUUUAFFFFABRRRQAUUUdeKAPsJMeH/wBl4kcPfyfnuf8AwFfHtfYHxgP9j/BHw5oq8eaEYj6Lu/rXx/QAUUV7r8Mf2aPjl8YJkTwJ4durmF/+XiRDFCB673wCPpmgDwqj2r9g/Bv/AAS507wtYJ4j/aQ8Y2mh2oG54IHVTjuPMk6/gtdr/wALW/4Jw/szr5XgDRT4v1aHgTsvmAsO/mS9PwWgD8qvAH7Pnxq+KEqR+BvDV9eq/SXyikX13vtX8jX3b4D/AOCU3xf1OBdU+JusWHhu0Ay+W8xwPckqo/M0nxC/4Kq/F7Vo2034X6XY+GbTopjjEkuO3LcA/QCvg/x58fPjH8TLprrxt4ivb4v1V5W2fgoOKAP1O/4Zu/4J0/A5PM+KHi5vEV5F96GKXeCR22w4X8zUFx+3l+yT8JYDY/Av4dRTyJws86RxAkdzgMx/Ovxbd3kbc5LE9zzTaAP038Zf8FU/2hNbV7XwjBYaBAeFEEIdgP8AefP6V8i+NP2o/j/8QXZvFPiq/nVv4BKyJ+CqQK8CooA3IJNX8R6nFaTzyTyzuBl2LHnvya9c+KF/BoejWfguwOAihpMf1/nWd8IdHj+13Hia9GIbNDtJ/vY5/IV5t4m1mTXtbuNTkP8ArGO32A6UDMGiiigQUUUUAFFFFABRRWrpWk3Gq3AjjGFH3m7CgBmm6Zc6nOIYBx3bsBXX3l/ZeHLb7BpuGmP3m9KZqWqWui2/9maVjf8AxN/nvXBszOxZjkmluVsOllknkMsp3MepNR0UUyQooooAKKKKACiiigAooooAUMVOVODXVaH478aeGphPoGq3Vm6nIMUrr/I1ylFAH2b4I/b9/al8DBIrTxNNewp0jvAJxj0+cE19V+Gv+Crmv38a2Hxb8H6drMJ4d4xscj6MGX9K/IeigD9rT8WP+CZ3x2IXxp4efwtfS9ZEjMYDHvvhxn/vmqOpf8E4fgL8ToG1D9nv4iQSs4ylvO6TfhgFZB+NfjBWjp2sato84udKuZbaReQ0TlSPyNAH258Sv+Cc37T3w7WS6h0lNatU58ywfe2PXY2D+Wa+Lde8M+I/C142n+JrC40+dTgpcRtGf/HgK+p/hp+3d+0x8MBHb6X4hlvbVMfuL39+mPT58kfhX2v4e/4KYfDP4hWS6D+0Z4Etb2JxtkntlVuvU7HB/QigD8ZqK/bWX9nL/gn3+0fEbr4QeJh4X1SbkW0j+WAx7eXL8v8A3ya+ZPiv/wAEyP2gvAUb6n4RWDxPYAble0bbKV9djHB/A0AfnLRW/wCI/CnifwhfNpnirT7jTrhTgpcRtGcj03Dn8KwKAPpr4EftJ+JvhHdjSr7N/okxxNauc7QepTPQ+3SvoP4q/s+eDvjB4ff4tfAORHkkG+4sV4y3UgL/AAt7dDX5xV6r8KPjB4v+EPiBNa8NznyycTQNzHIvcEf1oHc8zvLO70+6ksb+NoZomKujjDKR1BBqtX6h+KvA3w2/a58Kt41+HrR6f4nt0zPbnALEDow7g9mr81/EXhzW/CesTaD4ht3tbu3Yq6OMH6j1HvQIxKKKKACiiigAooooA+wPgbrdn438IX/wq10hsxs1vnrjuB9DzXytr+jXfh7WbnRb5Ssts5Q5746H8RWh4O8SXfhLxJaa9ZnDQOCfde4/Kvof9orw5a6ra2HxO0QBoLyNVlK+pHBP8qBnyjRRRQIKKKKACiiigAooooAKKKKAPT/hHe/ZfGMUROBMrIfy4rnvHll9g8XX0AGAZCw/4FzVPwldmx8S2VyDjbKv6nFdv8ZLTyPFguFHE0Sn8uKB9DyaiiigQUUUUAFFFFABRRRQAUUUUAFdbop+3aXc6W3JA3p9a5KtnQLoWuqxO33WO0/Q0MaMYgg4NFa2t2v2PU5YQMDOR9DWTQIKKKKACiiigAooooAKKKKACiiigAooooAKKKKACiiigAooooAKKKKACiiigAooooAKKKKAP//W/GeiiigAooooAKKKKACiiigAooooAKKKKACiiigAooooAKKKKACiiigAooooAKKKKACiiigAr9F/2Tra3+HPwe8WfGjUF2uIzBbse+wdvq5A/CvzpALEKvU8Cv0Y+PDL8Mf2WfC3w3h/d3GqbZp1HBOB5jZ/FgKBo/PG/vbjUb2bULpi0s7s7E9yxyaqUUUCCiiigAooooAKKKKACiiigAqxaRGe7ihHV3Ufma7PwF8MvH3xQ1dND8BaVcancOQuIUJVc/3m+6o+pr9U/hH/AMEzbHwrFa+NP2l/EMGjwK6utlFIFZiDkKznkn2UUAfInx68PeIfEknhrwb4Vsp7+68nKw26M7HhQOFHH417D8Iv+CYPxj8YW6a/8UbqDwnpQG+QzsGmC+4ztX8SfpX2f8cP24PhD+zZKnhH4MeHYr/UxCNt5MoCKOgOfvN+dfkj8Zv2tfjj8crt38ZazMtqxJW0gYxwqPTYpAoBn6VIP+Cc37JIwR/wnHiC3/i4uAHHuf3a8/3Qa8I+KX/BUr4ta9A+ifCawtfCun8qhiUPNt7fMRgH/dAr8uCSxLMck0lAHbeMviR48+IOoPqnjXV7rUp3OS08jN+hOK4miigAooooAKKKKACnKrOwRRkk4FNru/hzoh1zxTbxMMxwnzH+i9P1oA9I8Rsvgz4c2+hxHbcXnL+vPJ/wr58r0n4pa4NY8TyRRHMVsPLX8OtebUDYUUUUCCiiigAoorS0zTJ9TuRBEOO59BQBJpOkz6rcCOPhB95vSun1XVrfSLf+ytJ+8OGYf560up6lb6Ja/wBlaZ9/HzMP89a4JmLEs3JNLcrYCSxLNyTSUUUyQooooAKKKKACiiigAooooAKKKKACiiigAooooAKKKKACiiigCSKWWBxJCxRh0KnB/Svpz4Ufti/tB/B2SNPCniCd7VCM21yfOiI9Nr5r5fooA/aHw3/wUh+EXxWsF8MftO+Cra5ikG17q2RXGTwWKNyPwNXNV/Yd/ZU/aHspNd/Zg8Xx2F643CwmfcoPp5bkOv4EgV+KVamka3rGgXqajol1LaTxnKvE5RgR7gigD6W+Mn7GH7QXwRkkn8T6JJdWKZ/0yyBmiwO5wNy/iK+ViCCVPBHBFfpP8F/+CmXxm+H9vFoHj1I/FGlqArJdcyhfQPyT+NfUs+l/sFftqJ59jKvgzxRMOh2w7nPv9x+fXmgD8YfBHjnxJ8PfEEHiTwxctb3ELA8Hhh3DDuDX6Ohvhv8Atn+D/LcR6X4wso8jGBvI9P7yn06ivLvjp/wTu+OPwiWTWtAgHiTRh8y3FmN0gTsWQfzGa+JtD1zxB4I8QR6ppjyWV9ZvnujKR2I4P1FAFvxv4H8SfD3xDN4Z8UW5t7mE9/usOzKe4NclX6l6Pr3gH9sjwSPDniTy7DxXZITFIMAuQOq+oPda/Ojx94C8R/DfxJP4Y8TQGKeEna2PldezKe4NAHF0UUUAFFFFABX2J8EtStfHvgLUvhhq53OiF4M+h9Poa+O67r4ceK5vBvjCz1uI4VHCyD1Q8GgDldV0250bUp9KvF2y27lGB9Qaz6+mP2kfCsNrrlt400wZtdTQEkdN2OPzFfM9ABRRRQAUUUUAFFFFABRRRQBPbSGK4jlH8LA/ka9u+MsYng0vVF/5aRYJ/AGvCh1r3rx5/p3w30i/6lNoP5YoGjwWiiigQUUUUAFFFFABRRRQAUUUUAFORijhh2OabRQB1viceelrqI/5ax4P1FclXXSn7V4TR+pgfH4VyNJDYUUUUxBRRRQAUUUUAFFFFABRRRQAUUUUAFFFFABRRRQAUUUUAFFFFABRRRQAUUUUAFFFFAH/1/xnooooAKKKKACiiigAooooAKKKKACiiigAooooAKKKKACiiigAooooAKKKKACiiigAooooA7z4XeHX8WfETRfDqDd9qu4kYf7O4Fv0r6h/br8RLffFC08L2zfudJs0QKOgZ+T+mK5P9i3QBrXx0sbpwGSwhluDnsQu0H8zXmHx/wBfPiX4yeIdUzuU3bxr/ux/IP5UDPHaKKKBBRRRQAUUUUAFFXNP0+/1a9j03S4XuLiZgqRxqWZiegAHJr9QfgN/wTc1/WNLX4hftEXyeF9AiHmNDIwWZ16/MTwgPpyaAPzj8D/D7xp8Sdbj8O+BtNn1K8kIASFS2Pdj0Ue5Nfq18Mf+Ccngv4c6GnxE/a316DTLOMCT7BHIFz32s33mPsorpPHf7cXwJ/Zv0R/h3+yToVvNcRgxvqUifLuHG4Z+Zz7mvyg+Jvxm+JXxg1l9c+IOrT6hK5JCux2L7KvQCgD9SPH3/BQ/4Z/CHSH8Bfsk+HLezhiBQX80YGT03KnU/Via/PFPi/8AEz4zfFbS9T+IGr3GoyPdodsjnYoznCr0Ar51r1D4MRed8TtITGf32fyBNAHaftMXHnfEySP/AJ5wRr/Wvnuvbv2hpfN+Kl+AchVjH/jorxGgGFFFFABRRRQAUUUUAFFFFABXv3w/iTwz4Kv/ABXOMPKCsefbgfrXhNrbyXdzHaxDLSMFH417l8T7lND8O6f4StjjChnA9v8A69A13PCppXnmaaQ5ZyST7moqKKBBRRRQAUUVNb28t1MsEIyzHAoAmsbGfULgW8AyT1PoK7W/vLXw5Zf2dYczMPmb0p8j23hbT/Jjw1zIOT6V5/LLJPIZZTlmOSaW5Ww13Z2Luck9abRRTJCiiigAooooAKKKKACiiigAooooAKKKKACiiigAooooAKKKKACiiigAooooAKKKKACpIpZYJBLCxRlOQQcEVHRQB9rfAv8Abx+OvwTaLTor86vpK4DWd6TIu30Unlfwr73g8X/sO/twwCz8XWqeDvFkwwJgRGGf2cYVuezV+GVPjkkicSRMVZTkEcEUAfod8ZP2FPj1+znqi+OfAbNrmmW7ebFeWXMiKOQXQdR7jNd74c8Q+Cf2v/BT+DfGca2PiuwQ+XIRtZmA6jPP+8teKfs+/t6/Gf4HtHpF1c/25onR7K8JcBe+xjytfoTpdh+yT+2dND4n+HV4PBHjyPDqqkRM0g5wRwsgz+NAH4jePfAXiP4b+JJ/DHiaAxTwk7Wx8rr2ZT3BrjK/eX4y/sx+LPH3g9/DXxPslh1uxH+janbrmKXHQ56jd/Ep/CvxE8aeDPEHgHxFceGfEsBgubdiOejDsynuDQBytFFFABRRRQB9neEmj+KvwQuvDU5332lDMeeuByv+FfGbo8bmOQYZTgj3Fe2/APxcPDHjqG3uWxbXw8iQHp83Q/nWf8cPCB8I+PbmKJdtvdHzovT5uo/OgZ5BRRRQIKKKKACiiigAooooAK96vf8ATfgvC/XyX/k3/wBevBa970T/AEr4OXsXXy2b+hoGjwSiiigQUUUUAFFFFABRRRQAUUUUAFFFFAHXaIPtGi3tp1wNwrka6vwoQ088DdHiNcqwwxA7GkN7CUUUUxBRRRQAUUUUAFFFFABRRRQAUUUUAFFFFABRRRQAUUUUAFFFFABRRRQAUUUUAFFFFAH/0PxnooooAKKKKACiiigAooooAKKKKACiiigAooooAKKKKACiiigAooooAKKKKACiiigAooooA/QD9hGzFnfeKfFsqjbZWO0MexOWP6LXwjrF42o6vdX7nJnmdzn/AGmJr79/ZaVdG/Z78f8AiUNhmjaMf8BiOP1avzwznk0DCiiigQUUVc0/T77Vr2LTdMhe4uJ2CRxxqWZmPQADk0AU6+pP2d/2Rfi3+0bqqJ4XtDaaWrfvtQnUrEo77f7x+lfa3wB/4J/eHPCHhxPjP+1tex6RpMCiZNPdgrMOoEnck/3RXO/tF/8ABRK6vtIf4V/s22o8O+HoV8n7REoSaRBx8uPuAj8fegD6El1X9kb/AIJ7aUbPSUj8W+OdmHclXKPju3IjGew5r8vvj7+1n8X/ANoXVWn8Xag0VgCfKsYCUhRew2jqfc1823d5d39y95fSNNLISzO5JYk9yTVagAooooAK9d+BKB/inpWf4XY/+OmvIq9h+A3/ACVLTP8Aeb/0E0AJ8eH3/FLUyezKPyUV4/Xrvx1/5Kjqn++P/QRXkVABRRRQAUUUUAFFFFABRRRQB6X8KtGGqeKo5pBmO2BkP1HSsr4g6wdZ8VXM4OURvLX6LxXpHgJV8O+AtQ8SScPMCqH6cD9a8EkdpHMjnJY5NAxlFFFAgooooAcqs7BVGSelegWVvb+GtPN7dgGeQfKPSqmg6ZDZW51rUeAo+QGuc1bU5tUujNJ90fdHoKW5W2pUu7qa9na4nOWY1WoopkhRRRQAUUUUAFFFFABRRRQAUUUUAFFFFABRRRQAUUUUAFFFFABRRRQAUUUUAFFFFABRRRQAUUUUAFFFFABVyw1C+0q7S/02Z4JoyGV0JVgR3BFU6KAP1e/Zp/4KY+LvBUcPgz43xHX9GwIxcHm4iXpyT98D0NfZfx0/Zv8AhF+2b8Ov+E9+BWowS6lAhkiCkBgcZ8t16rn34r+davXvg78cPiH8DvFEPijwHfyWrowMkQY+XKoPKuvQg0AcR4x8GeJ/AHiC48LeL7OSxvrVyjxyqVPBxkZ6g9iK5iv6PtGvP2d/+CiPwzjfxbax6f4hjTY08eFlhlx2bqVJ7Hivx7/aY/Y3+KP7NurPJq0Dahojt+41CFSUx2EgH3T+lAHyLRRRQBNbzyWtwlxEcMjBgfcV9hfFWGP4i/CDTPHtqN1zZALNjr6Nn+dfG9fW/wCzrqsGu6Nq3w51E5S5iZ4wfXGDj+dA0fJFFauuaVPoesXWkXIw9vIyH8DWVQIKKKKACiiigAooooAK978C/v8A4Z6vb+m4/mteCV738Mf3vgvWoTz8uf8Ax00DR4IOlFA6UUCCiiigAooooAKKKKACiiigAooooA6Xwo23V1H95WH6Vh3gxdyjp87fzrW8Mtt1qH3J/lVHVxjVLgf7ZoH0M6iiigQUUUUAFFFFABRRRQAUUUUAFFFFABRRRQAUUUUAFFFFABRRRQAUUUUAFFFFABRRRQB//9H8Z6KKKACiiigAooooAKKKKACiiigAooooAKKKKACiiigAooooAKKKKACiiigAooooAKKKKAP0R+E8J0v9inxbqS8G6lkUfhsWvzur9EfBjsn7COt7eM3Tg/8AfaV+d1A2FFFfU37MX7KPxB/aX8ULY6HE1ppEDD7XqDj92i9wp/ibHagR5P8ACb4P+PvjX4sh8H/D+xe8uZSNzAHy4l7s7dABX7KaN4M/Zy/4Jx+E08R+OHi8SePriLMUIwxjYjoo58tQe55NZfxX/aJ+DP7DvguT4K/s2Qw33iQrsvNROH8t+jFm/if0HQV+Knizxd4k8ca7ceJfFd5LfXt0xeSWVixJP17UAe0ftA/tO/FD9orxE+reM7xltFY/Z7KMkQxL2AXufc186UUUAFFFFABRRRQAV7B8ByB8UtLz/eb/ANBNeP16r8EZBH8UdIY/89cfmpoAsfHYEfFLVM/31/8AQRXkVe0ftAxmP4qaiD38s/8AjorxegAooooAKKKKACiiigAp8cbSyLEnJYgD8aZXZeANL/tfxXaWxGVVt7fReaAPSviNIug+DdN8MxHDMAzj6D/GvA69N+LGqf2h4skgQ5S2URj6968yoGwooooEFdJ4e0f7fP8AaLgYhj5JPesnT7GbUbpbaIdep9BXW69fw6baLothxgfORSY13MrxFrH26b7Nb8Qx8ADvXM0UUxNhRRRQAUUUUAFFFFABRRRQAUUUUAFFFFABRRRQAUUUUAFFFFABRRRQAUUUUAFFFFABRRRQAUUUUAFFFFABRRRQAUUUUAFFFFAHsPwV+MHiD4N+MYPEWkSMYSwE8OeHTv8Aj6V+/Wi/tM+HfEnw6t9W8UWaeIPCd7Hsu1KiSWBSMEle+3uOuORX80lfVP7Mnx3m+F3iH+wNfbztC1I+XPG3IQtxvA/nQB9dftOfsDadLoLfGv8AZfnXWvD9ypmezhO94geT5eOSB3U8ivyglilglaCdSjoSrKwwQR1BHY1+u1z8RvH/AOxr40i+IHw8kOqeBdbYPcWJJaFd/J29lz2NemfF/wDZv+D37a3gmT43/s0yxWfiJE33mncLvfGSrKOjejAYNAH4c133wx8Sv4U8b2Grg4RZAr/7rcGuc8R+HNd8I61ceHfEtrJZXtq5SWGVSrKR9f51iqxVgw6igD6M/aU8NJpnjGPxBaD9xqUYfI6bh/iK+cq+yPFS/wDCxP2f7TXF+e60ogMe+E4P6V8b0DYUUUUCCiiigAooooAK95+FB3eG9Zi9U/oa8Gr3j4Tf8gHWP+uf9DQNHhBGDikpzfeNNoEFFFFABRRRQAUUUUAFFFFABRRRQBueHDjWYPrVXWP+Qrcf75q34aGdahx61U1j/kK3H++aXUfQzaKKKYgooooAKKKKACiiigAooooAKKKKACiiigAooooAKKKKACiiigAooooAKKKKACiiigD/0vxnooooAKKKKACiiigAooooAKKKKACiiigAooooAKKKKACiiigAooooAKKKKACiiigAooooA/RHwWjP+wjrYUZxdSE/99pX53V+h/wmmbU/2KvF2ndfssshH47GrJ/Yx/Yy1b9oDVz4z8Z7tO8H6c2+4uH+Tz9vJRCe395u1A2Zv7IH7F/ib9ovV/8AhItfLaX4Tsm3XN4/y+aF5KRk8dOrdBX1J+1B+2f4S+F/hdv2cv2VESx0+0Q291qMHBcjhhGw6k9279q5X9sX9tHSU0c/s8/s4bdN8MWCfZ57i3G0z7eCqEfwep71+T5JYlmOSepoES3FxPdTPc3LmSRyWZmOSSepJqGiigAooooAKKKKACiiigAr0P4TzeR8RtIk6f6Qo/PivPK6vwLP9l8Z6XcHjZdRn/x4UAen/tIw+V8ULl/78cZ/TFeC19J/tRW5j+IMVx2ltkP5E182UDYUUUUCCiiigAooooAK9w+DdokD3+vzfdgjwD+prw+vfdO/4p74RzXP3ZL0kD/gRx/KgaPEdUvHv9RnvXOTI5b8zVCiigQUqqWYKoyT0pK7DwzpqfNq15xHHyM+ooGkacKxeGdJ85+biUcf59q4CWR5pDLIcsxya0tZ1OTU7xpj90cKPQVk0A2FFFFAgooooAKKKKACiiigAooooAKKKKACiiigAooooAKKKKACiiigAooooAKKKKACiiigAooooAKKKKACiiigAooooAKKKKACiiigAooooA/Qr9l/4s6P4y0Cb4BfE1hNaXiFLOST+En+DJ9+nvXl51b4q/sVfGX7Z4VupIkVt8R58q4hz91x0PHBr5Osry50+7jvrNzHLEwZGHBBHQ1+nui3Wj/tffBd9D1IrH4p0RMo/G58DhvcN0NAz6g13wz8Ff8AgpP8Oj4l8KeVofxC06LMsXAMhA6EfxIT0PUV+Jfj7wB4s+GPim68G+NbN7K/tGKujjqOzKe4PY1s+D/GXj74HePk1rw/PLpuraZNhgCRyp5Vh3Br9oYn+EH/AAUt+FphnEOkfEXSocgjALkDqP7yMeo7UCPzH/Zs1OLVbPV/Ad6cx3UJdAfXGDXzBrmmS6LrN1pM4w1vKyH8DXtujeH/ABZ8BvjbH4Z8a27Wd3aT+TKrAgMjHG5T3U9Qai/aN8PDRviFJfQjEV/GJQR0z0NAzwKiiigQUUUUAFFFFABXvPwnBXw7rMh6bP6GvBq97+F3yeDtal/2cf8AjpoGjwUnJJFJQOlFAgooooAKKKKACiiigAooooAKKKKAOi8LLnWYz6ZP6VlalJ5uoTSdMuf51t+El/4mZkPREY1ztw/mTvIOMsT+tA+hDRRRQIKKKKACiiigAooooAKKKKACiiigAooooAKKKKACiiigAooooAKKKKACiiigAooooA//0/xnooooAKKKKACiiigAooooAKKKKACiiigAooooAKKKKACiiigAooooAKKKKACiiigAoor6J/Zm/Z18WftI/Ee38HeH0MdnEVkvroj5YYc8nP8AePRR60Aff/8AwTj+FkHxZ+GPijw14mjaHQ2nH2ic/KrKU+ZVY8cY5PauZ/bW/bC0aLSh+zd+zuy2HhnTF+zXU9v8onKcbFI/gHc/xGvvi4+Ivwp8IaXqn7J3wSVUTRdPZbyeIj5pHBVl3D7z55Y/hX82ep272epXFpJ96KV0OfUMRQBRJJOTRRRQAUUUUAFFFFABRRRQAUUUUAFaOjzfZtWtbjONkqN+RFZ1ORtjh/Qg0AfVn7U8O/VtH1IdJrbH65/rXyjX15+0Mo1DwJ4Y1sc7oguf95Af6V8h0DYUUUUCCiiigAooooAkijM0qxL1YgD8a91+Kcg0zw3pXh+PjagZh9BivLvBdj/aPiiytSMgyAn6Dmut+MF/9q8VG2U/LboqD69TQM8qooo68CgRf0ywk1G8W2j79T6Cun8SX8dtCmjWfCoPmx/KrdjGnh7Rmvph++lHyj+VcFLK80hlkOWY5NIexHRRRTEFFFFABRRRQAUUUUAFFFFABRRRQAUUUUAFFFFABRRRQAUUUUAFFFFABRRRQAUUUUAFFFFABRRRQAUUUUAFFFFABRRRQAUUUUAFFFFABRRRQAV6R8KfiRrPws8Z2nirR3I8pgJU7Oh+8p/CvN6KAP0T/ai+HGj/ABF8JWn7Qfw7QPFPGDexp1HqxA7qeDXxH8O/iJ4r+F3iy08aeDLt7S+s3Do6HGcdQR3B7ivqX9kX4xWmhapN8LPGLB9H1nMah+VSRuO/ZuleOftD/CC7+EHj6fS0UnT7omW0fsUP8OfUUDP1zubf4b/8FJPg+ur6YIdL+I2gxhiBgGQr+rI36Gvz4/aX8Ha9Z+CtOu/Elq1tqWmMILlGHIP3T+BIyDXzR8Iviz4v+C/jiz8d+DLloLq1cEgH5XXurDuCK/db4iWvgz9u/wDZtu/iB8PERPEVtbEXdoMb/NQZ2ke55U0Afzt0VYvLO60+7lsL6Nop4WKSIwwyspwQR7Gq9AgooooAKKKKACve/AP7n4caxP67v0WvBK978N/6L8INQl6b2b+goGjwQdKKKKBBRRRQAUUUUAFFFFABRRRQAUUUUAdb4XHlx3dz02xEZrksk8nvXW6b+48NXc/dyFFclSGwooopiCiiigAooooAKKKKACiiigAooooAKKKKACiiigAooooAKKKKACiiigAooooAKKKKAP/U/GeiiigAooooAKKKKACiiigAooooAKKKKACiiigAooooAKKKKACiiigAooooAKKKOvAoA63wL4I8R/EfxbY+CfCdu11f6hKsUSKM8k8k+gA5J9K/av4s+MvCP/BPH4AwfBj4dyRzeOddh33t2uN8e8YaQnqMdIx+NYv7KXw98L/sd/s9337VvxQgV9d1GDbplvJw6o/+rVQ2Duc8kj+Gvx++JvxH8T/FnxvqHj3xdO097qEpkYk8KCeEX0VRwBQB9NfsR+JrkfHGWLUZWkk1W2mDsxyWf7+ST1PBr52+M+inw98VvEGkFdoivZSo/wBlm3D9DW1+zxrx8N/Gjw9qZO1ftaRt9JPlP869Q/bX8PjRfjldXaLhNQginHucbT/KgZ8j0UUUCCiiigAooooAKKKKACiiigAooooA+wfHgGtfs46LqQ5a2ZAfwypr4+r7B8M/8T39mXUbI8tZuxA+jBq+PqBsKKKKBBRRRQAUUUUAetfByx+0eJ2u2HFvGW/E8Vw/iy9Oo+I7y7zndK2PoDivVvhQgsfD+rayeqoVB+gzXhcrmWVpD1Yk/nQPoR10XhvTPt975sg/dxcmufVWdgi8k8Cu/vGXw/oS2sf+umHJ/nSYIwPEep/b70xxH93Hwtc7RRTEwooooAKKKKACiiigAooooAKKKKACiiigAooooAKKKKACiiigAooooAKKKKACiiigAooooAKKKKACiiigAooooAKKKKACiiigAooooAKKKKACiiigAooooAlgnltpluIGKuhDKR1BHSv090W4sf2sPgDJod4ynxLoKZRj95to+U/Rhwa/L2vZvgR8Ub/4UfEGz8QQMTbOwjuU7NGxwc/TrQB5Fe2d1p15LYXqGOaFyjqeCGU4Ir7o/YC+NWq/CT4tNHC5azv4tk8JPyuF56euOlU/2yvhfYadqtp8WfCqhtN1tVaTZ0EhGQ3HHzD9a+WPhhrDaF480zUAcBZlDfQnBoA/VX/goP8AsuaRrelD9pz4OxLLZXQDanBCPusf+WmB0I/i/Ovxsr9v/gd+0Fa/Dr4xS/Bz4hsJ/Cni6IIBKQUimb5c88Yboa+Ev23f2ZLn9nP4pPFpKs/h/V8z2MuDtXPLR56fL29qAPi2iiigAooooAK97b/Q/gtg8ec/82rwSvevFv8Aofwn0y1/56FT/M0DR4LRRRQIKKKKACiiigAooooAKKKKACiinIpZgo7nFAHWXg+zeFoIu8r7q5Gus8Ut5X2awHSKMH8TXJ0kNhRRRTEFFFFABRRRQAUUUUAFFFFABRRRQAUUUUAFFFFABRRRQAUUUUAFFFFABRRRQAUUUUAf/9X8Z6KKKACiiigAooooAKKKKACiiigAooooAKKKKACiiigAooooAKKKKACiiigAr7y/YH/ZqX47fFIa94mjx4a8PYur124R2XlIs9OcZb2r4k0DQtT8T65aeHdFiM13eypDEi8lnc4A/Wv2u/aH1/S/2H/2U9M/Z88GyqvifxJEX1CdPvqrj962evP3F9qAPjX9vr9pn/heHxKPhTwrJs8MeHSba0jThJHX5WkwOMcYX2r4EpSSTk8k0lAF/S76XTNTt9ShOHt5FkB91Oa/QP8Abeso/EPhvwh8S7QZS8tvLdh/tKHX+tfnbX6RPn4o/sQBh+8uvDsn1IETf/ENQNH5u0UUUCCiiigAooooAKKKKACiiigAooooA+vf2eXGr+BvEvhhjkvGWUf7yEfzFfI0sZilaJuqkj8q+k/2XdTFt44uNLc/LeW7Lj1K814n450xtH8YalppGPKuHA+mcigDlKKKKACiiigAooooA980r/iVfB+5uOjXLEfXJxXgde+eMv8AiWfDDTNPHBl2k/lmvBVUuwRepOKBs6jwtp63F0byb/Vw8/jWbrmoNqN+8oPyLwv0FdPqLjQ9CSxjP72UfN/WuApLuD7BRRRTEFFFFABRRRQAUUUUAFFFFABRRRQAUUUUAFFFFABRRRQAUUUUAFFFFABRRRQAUUUUAFFFFABRRRQAUUUUAFFFFABRRRQAUUUUAFFFFABRRRQAUUUUAFFFFABRRRQB+k37N3iTTvjV8KdT+BHi1w9xBEXs3brt7Y/3TX5/+INC1PwT4puNC1RTHc2ExRgf9k8H8a1fhp441H4deNLDxZpjFXtpAWA/iTPzA/UV9l/theB9P8T6Lpfx58JKGtdQiRbnb2JHDH6Hg0DPOvj6ZNT8HeG/G9ocSBFG8dQSo7/UV+inwS8UaJ+3t+zFf/BDxzKv/CXeH4vMsp3xvcIP3bjvx91vavzul/4qn9mYEfNJpzfiNpz/ACNeQfAL4xa98C/ijpnxD0FyDaSDzkB4kibh1P1FAM848UeGtZ8G+Ir3wt4hha3vbCVoZo2GCGU4/I9RWDX7A/8ABRb4R6B478L6N+118MEEmn6xDGuoeWOjMPldsdCD8rV+P1AgooooAfGu5wo7mvdfiwRaeHNG0wfwoCR9FFeM6Nbm71a2th/HIo/WvVvjXcA63a2K9IYf5/8A6qBni9FFFAgooooAKKKKACiiigAooooAK1dEtvtWqQxdt2T9BWVXV+GEEJuNRbpChx9TQxozfEFz9p1aZx0U7R+FY1OdzI5kbksc/nTaBBRRRQAUUUUAFFFFABRRRQAUUUUAFFFFABRRRQAUUUUAFFFFABRRRQAUUUUAFFFFABRRRQB//9b8Z6KKKACiiigAooooAKKKKACiiigAooooAKKKKACiiigAooooAKKKKACiitXQtF1DxHrVpoGkxmW5vZUhiReSWc4A/M0AfqP/AME0PgzpL6tq/wC0r49QJo3hSJ2t2kHymcLuZueuxf1Ir4X/AGj/AIz6v8evi7q3xC1Nm8q4lKWsZPEcCHCKPw5Pua/T79s3X7D9l39lnwz+yz4SkEeo6pCJdSZOGKfek3Y/vucfQV+JtABRRRQAV+hn7Dus22t6f4n+FWokGPUbYyxqfXBRv0INfnnXuP7OXjb/AIQL4w6NrMjbYZJhBN6bJflOfpnNAHlXibRLnw34hvdAuxiSzmeJgf8AZOKw6+vf21PBQ8MfGCXWLZMW+rxLcKR03dG/UZr5CoAKKKKACiiigAooooAKKKKACiiigD034O6t/Y3xJ0q7JwrTCM/R/l/rXU/tGaR/ZfxNuZlGFu0SUfiMH9RXiunXb2GoQXsZw0MiuPwOa+rP2mLRNS03QvGEAytxDsYj3AYf1oGfI9FFFAgooooAKlt4zLOkY6swH5moq2PD0H2nXbSD+9Kg/WgD174wyC3sdL01eNkecfgBXmPhawF1ffaZfuQ8n613fxonL+IobUf8s4QPzrm3I0Pw4EHEs/8AWkyupzOu351DUHkH3V+VfoKxqKKZIUUUUAFFFFABRRRQAUUUUAFFFFABRRRQAUUUUAFFFFABRRRQAUUUUAFFFFABRRRQAUUUUAFFFFABRRRQAUUUUAFFFFABRRRQAUUUUAFFFFABRRRQAUUUUAFFFFABRRRQAV+jn7JvinT/AIj+AdY+A3ilg4kid7Td6EcgfQ8ivzjru/hp41vvh7430/xZYMQ1rKrMPVc/MD9RQCPqr4a+HL7R/Dvi/wCGOrqRPZM4we4wQCPrxXw46GNzG3VSQfwr9nPFvhmw1PxFb/FXw8A1nr9iFm29N+MqT+or8gvFtgdM8UahYEY8udx+Gc0DZ+tv/BOj4naN8S/Bmv8A7I/xGcS2eqQSSaeJOcEj50XPf+Ie4r8vfjF8MtZ+D3xJ1b4d66pE2nTsisRjfHnKOPYrWb8M/HmsfDLx5pfjvQnMdzptwkykHqFPIPsRxX6sf8FG/A+kfFT4b+Fv2tvBMYaG/t44b/ZzjePlLY7q2VNAj8baKKKAO2+HVn9t8Y2URGQr7j/wHmr/AMVLv7X40uQDkRhU/IVt/Bi083xLJet0giY/nxXnnia8N/4gvLvOd8rY+gOKB9DCooooEFFFFABRRRQAUUUUAFFFFABXXOPsHhgKeHuW/QVzFtC1xOkC8liBXQ+KJ1+0x2Ef3YFA/GkNHL0UUUxBRRRQAUUUUAFFFFABRRRQAUUUUAFFFFABRRRQAUUUUAFFFFABRRRQAUUUUAFFFFABRRRQB//X/GeiiigAooooAKKKKACiiigAooooAKKKKACiiigAooooAKKKKACiiigAr9Jv+CZHwgg8c/G+T4h65GDpfhKA3bsw+XziCIx6cct+FfmzX7aeD3X9ln/gm7d+KB+41zxwxEZ6Ptnyie/EYLfjQB+b37W3xhufjf8AHjXfGZkL2gma2sxngQREquPrjP4182UpJJyeppKACiiigAqSKV4ZVmiOGQgg+hFR0UAfpV8cUX4y/sv6F8TrQeZeaThLgjkgfcfP4gGvzVr9EP2L/EFn4r8NeIvgprbBor6BpYVb3G1sfoa+EPFnh688J+Jb7w3frtlspniYH/ZOAfxFAznqKKKBBRRRQAUUUUAFFFFABRRRQAV9iasf+Ey/Zqt7sfPNpbAH1Gw4/ka+O6+vf2driPX/AAhr/ga4OfNjMiA/7S4P64oGj5Coqxd2z2d1JaSjDRMUI9wcVXoEFFFFABXY+AIPtHi+xj/6aZ/LmuOr0f4Uw+d40t/9kM35CgDa8dQHVPiLJCeVjC5+gFcL4qvhdah5Ef3IRtH1r0jxCwtNa1XWJOpcqv4cV4nI7SuZG6scmkUxlFFFMkKKKKACiiigAooooAKKKKACiiigAooooAKKKKACiiigAooooAKKKKACiiigAooooAKKKKACiiigAooooAKKKKACiiigAooooAKKKKACiiigAooooAKKKKACiiigAooooAKKKKAP1f8A2NvHCeOfhpffDbU33XOmfPBnr5ben0NfAHx50l9G+KeqWjjaSyvj6j/61bf7Nnj+b4efFnTNT3EQXDi3mHYpJx+lev8A7dHhCXRfihb+I4Uxa6nbgqw6F06/oRQM+Ja/ab/gn94j0345fALxh+yx4scSMIHuLENyQrjB2/7r4P41+LNfTv7HnxZl+Df7QOgeLGkKWrzi2uhngxTfI2fpnNAj5+8TeH9Q8KeIr7wxqyGO50+eS3lU9Q0bFT/KsOv0b/4KbfCiLwH+0AfF+lIBYeJ4Fu0ZR8plHD/mMH8a/OSgD3v4VqNO8Mavrj8YXaD9ATXgzuZHMjdWJP5173/yA/g4ez3jfnuP+ArwKgbCiiigQUUUUAFFFFABRRRQAUUUUAdP4Xt1a8a9k+5Apb8awLudrq5e4fq5Jrp5P+JZ4bEfSS6OfwrkKQ2FFFFMQUUUUAFFFFABRRRQAUUUUAFFFFABRRRQAUUUUAFFFFABRRRQAUUUUAFFFFABRRRQAUUUUAf/0PxnooooAKKKKACiiigAooooAKKKKACiiigAooooAKKKKACiiigAooooA7j4Z+D7v4gfELRfBVipaXU7yG3AHo7gE/gK/Tn/AIKpeMrTTNb8J/AfQmC2fh2wWSRF6BmUIgI9lX9a8i/4Jh+Ao/F/7Tdrrd2m+30C1lvWJ6B8bE/Vs18+/teePn+JX7RvivxNv3xfbXt4jnP7uD92uP8AvnNAHzbRRRQAUUUUAFFFFAHp3wc8dXHw5+I+l+KoWISCZRKB3jbhh+VfSv7bngSCw8X2XxK0ZQbLXYVYsvTzABz+K4r4cr9M/A0kX7Qn7Kt54OnIk1jw6Mw55YiMZT81ytA0fmZRT5I3hkaKUFWUkEHsR1plAgooooAKKKKACiiigAooooAK9y/Z518aJ8SbWKQ4jvFaBvxGR+orw2tPRtRl0jVrbU4Dh4JFcH/dOaAPQvjVoH/CO/EfUbVVwkr+cn0fn+deVV9aftL6dFqdro3jq0GUu4QjEepG4fzNfJdAMKKKKACvWPg3Hv8AFu/+7ExryevZfgomfEU8n92E/wA6Boz/AIk3oW9ks4/4nLH868qrpfF179u8Q3UoOQHIH4GuaoQMKKKKBBRRRQAUUUUAFFFFABRRRQAUUUUAFFFFABRRRQAUUUUAFFFFABRRX29+zP8AsRfEL48yx65qQbSdCBBNxIuGkHpGD1+tcWPzChgaTxGLmoxX9ady4QlN8sUfFVpZ3moXC2lhE88rnCpGpZj+Ar6d8B/sY/tEfEKNLjStAltoH5El0fKGPx5r+gT4PfspfBr4LWUcfhvS45rtQN11OA8rH1yen4V9IKqou1AAB2FflmaeJ75nDLqWneX+S/zPSp5b1qM/n90n/glp8bLyISalqVhan+7lmP5irt5/wSt+MMMRe01iwlYfwkMK/feivnH4i5s3fmj/AOAo6P7PpH8ynjX9gX9pHwZE1z/ZA1CJOd1q4c4/3etfJuveFfEvha5Nn4ksJ7GVTgrNGyfzGK/sdrgvGnwv8AfEKwfTfGGk219E4wfMQE/geor2sB4oV4tLHUVJd46P7ndfkY1MtX2GfyAUV+1X7Qv/AATJsnt5/EnwOmMcigubCY5VvZG7fQ1+Onibwt4g8G6zN4f8T2klleW7FXjkUggj+Yr9PybiDB5tDnwk7vqno18jzqtCdJ2kjAooor2jEKKKKACiiigAooooAKKKKACiiigAooooAKKKKACiiigAooooAKKKKANLRpza6tbXK8FJVb8jX61/tG+Gf+Fofs7xeILZfMvdHVJwR12gDf8AmpzX5DQtslVvQiv2t+D+uWOp+HrLwhqeGj1my2KD0LCPkfiM0DR+J1SRSvDKs0ZwyEEH3Fdb8QvC1x4J8b6p4WuQQ1lcOgz3XOVP4jFcdQI/bD9pxI/2gv8Agn/4S+MNuPN1Dw55cVyw5IC/uZM/+OtX4qQRtNMkS8liAPxr9oP+CfV7F8Vf2Y/iJ8BdQPmMsLzwIewlQqcfRgDX5IeDtEmn8a2+kXK4aGYrID28s8/yoA9C+LEi6boOk+Ho+NiBmH0GP514PXqHxc1IX3i6SFD8tugQfXqa8voGwooooEFFFFABRRRQAUUUUAFX9Ms2vr6O2X+I8/SqFdfoarp+nT6xL1xsj+poGil4lu1uL/yIvuQjYB9K52nOzOxduSeTTaBBRRRQAUUUUAFFFFABRRRQAUUUUAFFFFABRRRQAUUUUAFFFFABRRRQAUUUUAFFFFABRRRQAUUUUAf/0fxnooooAKKKKACiiigAooooAKKKKACiiigAooooAKKKKACiiigAooooA/ZT/gmvbxeBPgl8T/jTcjYbW0MET/8AXKNpCPzK1+Ot9dzahezX9wd0k7tIxPcscn+dfsj4Qz8OP+CU2ramFEc3iK6dQw6sskqxj9FIr8ZKACiiigAooooAKKKKACvpv9lH4m/8K5+KdtHevtsNUxazg9PmPysfoa+ZKfHI8UiyxnaynII7EUAfTn7WXww/4V18Uri5sUxp+rZuYCPugt95R9DXzBX6damsf7TP7L8d9bgSa/4bHzDqzeWOf++l5+or8x2VkYo4wQcEH1oGxtFFFAgooooAKKKKACiiigAooooA+yNKH/Cwf2c57H79zpBJHrhOR/46a+N6+ov2YtdiTXb7wjeHMOownCnoWUc/mDXgvjXQpPDPiq/0SQY8iZgP93OR+lAzl6KKKBBX0D8FrTy1urw9XTA+gr5/AJOB3r6h+GkSWkLWn8QhyaRUT5r1Rt2pTsP+ejfzqjVzUf8Aj/n/AOujfzqnTJCiiigAooooAKKKKACiiigAooooAKKKKACiiigAooooAKKKKACiivpT9lb4FX/x6+K1n4YVSLCBhNeSdliU8jPqelc+LxVPC0Z4is7RirsqMXJqKPqf9hj9i9vineRfE74jwMuhW7A28DDH2hh3P+yP1r989N0zT9HsYtM0uFLe3hUKkaDCqB0AAqn4d8P6T4V0S28PaHCsFraRrHGijAAUYrar+auIuIK+cYh1qrtFfCuiX+fc+hw9BUo2W4UUUV8+dAUUUUAFFFFABXyH+1J+yb4M/aE8NyyiJLTXYEJtrtQASR/C/qDX15RXXgsdWwVaOIw0uWSInBTXLI/j08e+BPEnw28VXfg/xVbtb3lm5RgRwQOjD1Brjq/oc/4KCfsyW3xR8DSfEbwzABrejoXfaOZoRywPqR2r+eRlZWKsMEcEGv6Q4Zz+GcYRYhaSWkl2f+T6Hz2IoOlLl6CUUUV9EYBRRRQAUUUUAFFFFABRRRQAUUUUAFFFFABRRRQAUUUUAFFFFACjrX6FW3jCbwl4K8E+M4mx9kuod/8AuElGH5V+elfYXipzc/sz6dMOsUq4x2w5oGjoP26PCMOnfEGx8bWC/wCj61bBiw6F0/xUivh2v0k+KA/4Wt+x5o3jBP3l3obKkh6nCfI36EGvzboBn6V/8Es/GI0D9o//AIRud8Q65YzWxX1YDev8q858d+Al8CftK+OLR02Q2F5M8fssx8wfoa8o/ZG8Tt4Q/aQ8Ia2G2qmowo3+67bSPyNffP8AwUc0W28D/FLW9dthsfWbaF8+rYMf9KAR+Rmt3zalrFzftz5sjN+GeKy6KKBBRRRQAUUUUAFFFFABRRRQBNBC9xMsEfLOcCul8RzJbpFo8H3YRlvc0vhyBLaOXWbgfLEML7tXM3E73M7TyHLOcmkPoQ0UUUxBRRRQAUUUUAFFFFABRRRQAUUUUAFFFFABRRRQAUUUUAFFFFABRRRQAUUUUAFFFFABRRRQAUUUUAf/0vxnooooAKKKKACiiigAooooAKKKKACiiigAooooAKKKKACiiigAoNFKoywHvQB+yn7Spj8J/wDBNX4c+G7Y4/tCWCVh67lklP6mvxqr9mf+ChkK6H+yr8JPDsPyr5Eb7fpbKf8A2avxmoAKKKKACiiigAooooAKKKKAPqb9k34rD4cfEiPT9TfGmavi3nB+6Cfut+B4qv8AtV/CZvhn8SJrrT0xpmqk3Fuw6Atyy/gf0r5jR2jcSIcMpyCOxr9O9Cltv2p/2cpNBuSG8R+HVzGT95tg+U/RlGD70DPzCoqe5tp7O4ktLpSkkTFWU8EEcEGoKBBRRRQAUUUUAFFFFABRRRQB1PgnX5fDHiux1yI48iVS3+7nB/SveP2m9AiTXLHxjZDMOpQjLDpuAyPzFfL1fZkKj4m/s9GIfPe6N09cR/4rQM+M6KKKBGlpFsbvUYoeuWyfwr6G8BXHm+Jb2AdI7fFeK+DoN+oPOeka/wA69J+FFz9o8WX7k/ejOPwNIpbHimo/8f8AP/10b+dU60dYUpqtwp7SN/Os6mSFFFFABRRRQAUUUUAFFFFABRRRQAUUUUAFFFFABRRRQAUUUUAFf0Q/8E2vhDF4H+Dn/Cb30QF7r7+YGI5ES8KPx61/Ploenvq2s2mmJybiZIx/wJgK/rx+Gvh2Dwn4A0fw5bLtS0tIo8D1CjP61+Z+JuYOjhKeDg/jevov+DY9HLqd5uT6Hb0UUV+HHtBRRRQAUUUUAFFFFABRRRQBBc20N5byWlwoeORSrA9CCMGv5av2wPhKfg/8ctW0G3TZZ3Tm6tvTZIc4H0Nf1OV+NH/BV3wTF9l8O+PYUw4Z7WRgOoPIzX33h1mLw+ZLDt+7UTXzWq/rzOHH0+anzdj8WqKKK/fzwgooooAKKKKACiiigAooooAKKKKACiiigAooooAKKKKACiiigAr6+vSJ/wBluNumyb+UlfINfXsvP7LAx/z2P/owUDR67+yHcx+NfhL4w+Fl2d26Iyxqe29Spx+IFfBej+DvEWvau+h6PavPPE5RgBwpU4OT2r6Q/Yz8ZR+FPi15F0cQX9tJCw9SBuH6ivszS/Deg6Dc3c+i26wm8medyOpZyT1/GvqOGuG55tNym+WnHd/oj4Hjnjinw7SjCnHmrS2XRLu/07nyJ8P/ANnLxZoXiDTvE2oXkUL2c8c+xck/IwbGfwr67/brvtW/aNn0rWfCFr5L2MJjnjkbl8HIx+tbVFfosuBstcORRd+99f8AI/Eo+LOeqp7Rzi125Vb/AD/E/HXVdI1PQ719O1aBoJk6q4waza/UH4s/DDS/iBoUmECX8KloZQOcjsfY1+Y13az2N1JZXS7JImKMD2IODX5nxDw/Uymsot3hLZ/o/M/d+C+MaPEWGdRR5akfij+TXkyvRRRXzx9mFFFFABRRRQAVLBC9xMsEYyzHAqKus0GBLK2l1u4HCDCe5oBC+IJo7K3i0S3PEYy/ua5Kpp55LmZp5TlmOTUNAMKKKKACiiigAooooAKKKKACiiigAooooAKKKKACiiigAooooAKKKKACiiigAooooAKKKKACiiigAooooA//0/xnooooAKKKKACiiigAooooAKKKKACiiigAooooAKKKKACiiigApy/eH1FNpV+8PqKAP2e/4KX/APJAvhL/ANeaf+k0dfjBX7Of8FGXXVf2ZfhJrcB3IbZEyOn/AB7J/hX4x0AFFFFABRRRQAUUUUAFFFFABXu37O/xVn+E3xItNZlc/YbgiG6UdDGx6/8AAeteE0UAfav7Y/wph8O+KIviV4bUPpGugSbox8qykZPt83UV8VV+lP7OXi3SPjf8Lb74BeNnBuoIi1jI33to+7jPdD+lfn9408Jav4F8T3nhbW4zHcWchQ57gdGHsRzQNnL0UUUCCiiigAooooAKKKKACvpr9mXxJFZ+Jrnwren9zqURAU9N6j+ozXzLWx4f1i40DWrXWbU4ktpFcfgaANv4g+HJvCnjG/0SUYEUrFPdG5B/KuMr62/aN0a31zS9K+JeljdFdRKkhHuMqT+or5JoA7vw1i20i6vT34H4Cum+DMn/ABVMqn+OFv51zOfsng8djKf5mtb4QS+X4xjX+/GwpIrscR4jTy9eu09JW/nWLXU+NYvJ8VX0f/TVq5amSFFFFABRRRQAUUUUAFFFFABRRRQAUUUUAFFFFABRRRQAUUUUAenfBe0S++LPh21fo9/CDn/eFf10W6eXbxoP4VA/IV/IJ8MNTGj/ABF0TU2OBDewsT7bxX9emm3CXenW91GcrJGjA+xANfjXinF+1w0ulpfmj18s2kXaKKK/Jz1AooooAKKKKACiiigAooooAK/N7/gp9YJc/s/xXbAZgvoyPx4r9Ia/NT/gqHqsdn8B7XTyfmur5AB/u819Fwkm82w3L/MjnxX8KVz+e6iiiv6bPnAooooAKKKKACiiigAooooAKKKKACiiigAooooAKKKKACiiigAr69l/5NYH/XY/+jBXyFX19fjyP2W4kH8c3P4yUDRzv7LWlxXfje41CUAm1tyV9ixA/lX6AV+eH7MuuwaV4+awuGCi9hMa5/vDkfyr9D6/a+BJQeWpQ35nf+vQ/ljxcjUWeN1NnGNvT/h7hRRRX2R+YBX5ifHjTYdM+J+oxwABZdsmB6sOa/TskAZPQV+W3xp1yHX/AIkaleWxDRo4iUjvsGD+tfBeIUofUqae/Np9zufsHgzGo80rSj8PJr/4ErfqeWUUUV+Pn9KhRRRQAUUUUAWrK1kvblLaIZLHFb3iK7iXy9KtD+7gGDju1WtPVdE0p9TmH76UbYx6D1rj3dpHLuck8mkPYbRRRTEFFFFABRRRQAUUUUAFFFFABRRRQAUUUUAFFFFABRRRQAUUUUAFFFFABRRRQAUUUUAFFFFABRRRQAUUUUAf/9T8Z6KKKACiiigAooooAKKKKACiiigAooooAKKKKACiiigAooooAKKKKAP2U/atSLxJ/wAE6fhj4ktz5n2N7eJj6fu3Q/qtfjXX7NWyt8Qf+CTskaKC/h67J45IEc+7P5Oa/GWgAooooAKKKKACiiigAooooAKKKKAOn8G+LNX8D+JrPxTochjubOQOpHcDqD7EcV+g/wAf/COkfH74V2fx38DRhr+1iAvYk5Yqv3gfdD+lfmjX1h+yr8bB8NfFh8OeIX3aHq58qdW5VGbgPj07H2oGj5P6cGivqv8Aan+CJ+GHiz+3tBXfomrEywOvKozclM/qPavlSgQUUUUAFFFFABRRRQAUUUUAfZHwjuIfiN8KdU+HN6264tVLwZ64PK4+hr4+uraazuZLScbZI2KsD2IOK9K+D3i9vBnjq01CRsQSt5M3ptfjP4Hmuz/aF8GroHjgavZLi11QCVSOm/8AiH9aBnmviD9xoNpbDuAT+VO+Gk/keM7M/wB5iv5iovGJ2rawf3Vz/SsvwhP9m8TWM3TEq/qaSB7m38TYPI8Z3g/vEN+Yrga9X+MVv5Xi0yj/AJaRqa8opiYUUUUAFFFFABRRRQAUUUUAFFFFABRRRQAUUUUAFFFFABRRRQBLBM9vOlxGcMjBh9Qc1/WF+zT46t/iL8EPD3iWFw7vapHJg5w8Y2kH8q/k4r9lv+CXnxxhgkvvgtrc20yE3NluPU/xqP51+f8AiLlcsXl6xFNXdN3+T3/RndgKvLU5X1P2mooor8CPdCiiigAooooAKKKKACiiigAr8Rf+CrPj6G71zQPh5bPk2yNdTKOxbhc1+02t6xY+H9Iudb1OQRW9rG0rseAFUZNfyj/tGfFO5+Mfxe1jxtK2YZpjHAPSJDha/Q/DfLHiMe8W17tNfi9F+p5+YVOWHL3PD6KKK/ejxAooooAKKKKACiiigAooooAKKKKACiiigAooooAKKKKACiiigAr7B8Yj7J+zPpkX/PSVT+bmvj8ckCvsL4uAWHwJ8PWPTeyH9C1A0fJOnahdaVfRalYuUmgYOjDsRzX64eBb3UfE3w90zxpdIAl4nzMvQOp2kfmK/IKv1E8A6xdWH7Et1qRyr2TyGM/RgQfzNfQZBxBWymo5QV4vdf11PjeMODcNxFRUKr5akfhl28n3R6xQeBk8Cvif9mrx38QvHfxi8OfD28vWuLXUr2KGVWAJ8st83zdelet/8FCNbPw++N8/w18ATyWenWlpEZURjlpJMk5PXpiv0B+IOC5LqnK/bT87n43HwZzN1OWVaHL31/K36mT8avjXpvhnTZfD3h2VZtQmUqzKciIHqSfX0r8+Hd5HMkhyzHJJ7k0O7yMXkJZjySepptfnOd53WzWt7Wtolsu3/BP23hThXDcPYb6thtZPWUnu3+iXRBRRRXin1AUUUUAFbeh6b9vu90vEUfzOfYVkQxPPKsMYyzHAFdXqkqaPYLo9uf3jjMpH8qBoytc1L+0Ls+XxFH8qD2FYtFFAgooooAKKKKACiiigAooooAKKKKACiiigAooooAKKKKACiiigAooooAKKKKACiiigAooooAKKKKACiiigAooooA//1fxnooooAKKKKACiiigAooooAKKKKACiiigAooooAKKKKACiiigAooooA/Zf/gn28fxF/Za+KXwblw0pgeeJScn97EwyB7Mgr8bJYnglaCQYZCVIPYjg1+mH/BK3xzF4d/aGn8IXr7YPEVhLb4PQyR/Ov6Aj8a+O/wBpTwLJ8Nvjv4p8HMuxLXUJTGP+mcjb0/Q0AeH0UUUAFFFFABRRRQAUUUUAFFFFABQCQciiigD9Kf2f/HWh/Hj4c3PwF+IzhryGM/YZnPzEKPlwT/En6ivg34h+A9c+G3iy78J6/GUmtmIVscOn8LD2IrA8P69qnhjWbbXtGlMNzauJI3XsRX6XeKtK0T9sD4Qx+LtAVI/FWjptljGMvgZKn2bqvvQM/LmirF3a3NjdSWV4hjliYo6sMEEcEGq9AgooooAKKKKACiiigBQSCCOor7YsQnxi+C0cZO/U9GYfU7P8Vr4mr3n9nzxoPC/jVNOu2/0XUh5Lg9Ax+6f6UDR5v40JGoRxn+FP61zWnzfZ76GfpsdT+Rr2P4++F5PDXjqRUXFvcL5kR7YJOR+BrxEHBBHagHue3/GiHfc2GoDpJFjP0rw+ve/iKP7R8C6Tqq87QAT9R/8AWrwSgGFFFFAgooooAKKKKACiiigAooooAKKKKACiiigAooooAKKKKACuq8E+MNb8A+KbLxd4elMN3YyrKjA46HofY1ytFTOEZxcJq6Y07ao/q4/Zu+Pvhr4//D228TaVIq3sahLy3z80cgHPHoexr6Er+TH4EfHfxp8A/GcXirwpKShIFxbsfklTuCPX0Nf0g/s//tN/Dn9oHw/Hf+G7lYdQRR9ospCBIjd8DuPcV/PvF3CFXK6rxGHV6L/8l8n+jPdwuLVRcstz6Nooor4Y7QooooAKKKKACikZlRSzHAHUmvzP/bF/bq0D4Y6dc+AvhlcJe6/KpSSZDuS2zweR1b27V6OV5ViMyrrDYWN2/uXmzOrVjTXNI8v/AOCjX7VFvp2mv8D/AAPchrmf/kIyxn7i/wDPPI7nvX4iVoatquo65qU+r6tM1xc3LmSSRzlmYnJJNZ9f0lkGSUsowscLS1e7fd/1sfPV6zqy5mFFFFe0YhRRRQAUUUUAFFFFABRRRQAUUUUAFFFFABRRRQAUUUUAFFFFAE1uu+dE9WA/Wvrr9o1vsXgrw1pHQqgOPog/xr5Y8PWxu9ds7YDO+ZB+or6U/apuQutaTpSniG3JP6D+lAz5h0uwm1TUYdPgGWlcKPxr9WbHT7dP2TPEmg2+CLWJlIH+6D+uK/P/AOD+jxm9uPEt4MRWaHaT/e/+sK+0Pg5rEnif9m/x/eTn5Wkl2/7oj4/lQHQ5X/gmL4P/AOEm/afsNVkXMWjW012x7Ahdq/qa8G/bB8YDxz+0r4u15G3x/bmgQ9flhAj/AKV+gn/BM/SoPAPwk+Ifx51MBI7S0a3ic8fcQyNg/ULX47atqU+sardavdHdLdSvM5PcuxY/zoEZ9FFFABRRRQAUUVvaHpYvZjPcfLBFyx/pQBpaVAmkWLazdD52GIlP865SeaS4laaU5ZjkmtTWtTOo3WU4iThF9qxqBsKKKKBBRRRQAUUUUAFFFFABRRRQAUUUUAFFFFABRRRQAUUUUAFFFFABRRRQAUUUUAFFFFABRRRQAUUUUAFFFFABRRRQB//W/GeiiigAooooAKKKKACiiigAooooAKKKKACiiigAooooAKKKKACiiigD1X4HePJ/hj8XvDvjuBiv9m30Mr47puAcfipIr7+/4KreAYLD4r6N8WdIXdZeJ7BG3r0MkQGOfdCtflZ9K/bHxXEP2of+CbNh4gh/f634GIWTHL7bf5W9+YiD+FAH4nUUUUAFFFFABRRRQAUUUUAFFFFABRRRQAV658F/i1rfwe8ZweI9MYvAxCXMOeJIz1H1HavI6KAP0R/aW+EWifEDw3F8f/hUomt7lBJewxjkHu+B3H8Qr87q+rv2ZPj5J8L9bPhnxITP4f1I7Jo25EZbjeB6eorY/ah+AEfgW+Xx/wCCB5/h7Uj5imPlYmfnHH8J7UDPjmiiigQUUUUAFFFFABWpojtHq1u6HBEikH8ay6v6WduowH/bH86APtvx9pkfxX+FUesWgD6lpP3gOpAHzD8RzXwsQQcHgivqb4YeOl8KfEAaTqLYsdTQRuD0Dfwn+lec/GzwM3grxlMLdf8ARLwmaEjpg9R+BoQ2ba41f4OEdWtW/Laf8K8Dr3r4YMNT8J6tojcnaWA+o/xFeESIY3KHqDigGMooooEFFFFABRRRQAUUUUAFFFFABRRRQAUUUUAFFFFABRRRQAUUUUAFdF4X8W+JPBWsRa/4VvJbG7gO5JImKkY+nWudoqZwU04zV0wTtsfr38Ev+ComsaRBDovxl083yLhftttgSY9WQ8H8K/S/4e/tb/AH4lRx/wBgeIbeOZwP3Nw3lOD6YbGfwr+VWnI7xtvjJUjuDg18Jmnh5l2LbqUb05eW33P9LHbSx9SGj1P7LrXULC+jE1nPHKp6FGBH6Vb3D1r+QHRPil8SPDYC6Frt9aqvQRzuB+Wa7A/tI/HgrsPivUsdP9e3+NfK1PCyun+7xCt5p/5nUszXWJ/WBeappmnRGa/uI4UXks7hQPzNfL/xQ/bT+AHwtgkGoa1Hf3SZxb2Z81ifTI4H4mv5qNc+JPxB8S5Gv61e3YPUSzOw/ImuKZmZtzHJ9TXoYHwupRaljK7l5JW/F3/IznmTfwI/Rv8AaD/4KKfEf4pQTeHPAaHQNKkyrMjZnkX3b+HPtX50TTzXMrT3Dl3c5ZmOSSe5JqKiv0fLcqw2XU/Y4OCivxfq+pwVKsqjvNhRRRXoGYUUUUAFFFFABRRRQAUUUUAFFFFABRRRQAUUUUAFFFFABRRRQAUUUUAejfCXTjqfxE0q1xkeerH6Dmu+/aSvG1L4nvaRfMYYY4wB6nn+tN/Zr037Z8R47phlbaJ5D+WBV5rEeL/jHqesXA3W9pKSSenyDAH5igaKXih18EfDy38PQnbc3gzJ688t/hX0z+zypt/2UPGsyDJdpBj/ALZ4/rXw78Q/EJ8ReJJpkOYYT5cf0HU/ia/Uz9h74cT/ABH+CU/hKMfLqeoFXP8A0zXbu/TNAHWfFP8A4x2/4Jq6N4JH7nU/F7K8q9GxP+8bP0jAH41+JtfqP/wVN+Jlrrvxc0z4VaIwFh4WtFjKKflEsgHH/AUAH41+XFAgooooAKKKfHG8riOMZZjgCgCzYWU2oXK20I5PU+g9a3tavYbWAaLYH5E++R/EatTPH4csPs0RzdTDLH+6K4wksSx6mkPYSiiimIKKKKACiiigAooooAKKKKACiiigAooooAKKKKACiiigAooooAKKKKACiiigAooooAKKKKACiiigAooooAKKKKACiiigD//X/GeiiigAooooAKKKKACiiigAooooAKKKKACiiigAooooAKKKKACiiigAr9Vv+CW/xQsLLx5rXwL8TMG03xZassaOfl85FIIwf7yEj8K/Kmut8B+MNW+H/jLTPGuhyGO60y4juI2Hqhzj8RwaAO2/aA+F1/8ABr4v678Pb5CosblxCSPvQsd0bD6qRXjlfsv/AMFE/Bek/GL4VeFP2uvA8YeK7to4L/ZyVD/dLY7o+VP4V+NFABRRRQAUUUUAFFFFABRRRQAUUUUAFFFFABX3l+zH8dtKn09vgp8VCLjR78eVbyS8iMtxsJPQHsexr4NpVZlYMpwRyCKAPon9ob4D6r8G/EpNuDPo92S1rOORg/wMfUfrXzrX6N/AT4x+HPi34Ub4E/GNhIZE2WdzIRkn+Fdx6MOx718l/Gz4MeIfg14qk0fU1MlpIS1tcAfLIn19R3FAzxiiiigQUUUUAFWrJtl5E3ow/nVWnxna6t6EUAdh4wLxalDMhw20EEeoNfUeIfjd8HMjDavpA/4Edo/9mFfMHjAB47W4Hdcf1rpfgz48fwL4vimnb/RLrEU47YPQ/hSRT3H/AAfuzZ+KJNNm48+NkIPqK4DxXYHTfEV5ZkY2yNj6E5r6F+KHhJfA3xIsvFmlj/iX6jIHBXoC3UfjnNeafGLTha+JheoPluYw34jg0xHktFFFAgooooAKKKKACiiigAooooAKKKKACiiigAooooAKKKKACiiigAooooAKKKKACiiigAooooAKKKKACiiigAooooAKKKKACiiigAooooAKKKKACiiigAooooAKKKKACiiigAooooA+uf2ZLP7JZa54jcf6mHYp9zk/0rmtZuf+EK8EzzE4vtVkZie43nP6CvZPgrp0ei/Bya/nGDeuzc9wOBXyR8SPE3/CReIGEBzb237uP046mgZ5915Nf0R/8E/k034YfsqXPxZ8QkRW9pHczhm46dSM/TAr+fnwx4d1Pxb4hsvDOjRma6vpkhiReSWc4Fftz+3VcN+zv+x94V/Z80WXbNeiOO8K9WCDfJ+Bfj6UCPxd+I3jTUfiL471bxzqrFp9UupLg57B2yB+AwK4uiigAooooAACTgV2VjBFoNn/AGpdjM7/AOrQ9veoNJ0+Kzg/tnUh8i/cX+8aw9S1CbUrk3EvfoPQUh7Fa4uJbqZp5jlmOahoopiCiiigAooooAKKKKACiiigAooooAKKKKACiiigAooooAKKKKACiiigAooooAKKKKACiiigAooooAKKKKACiiigAooooAKKKKAP/9D8Z6KKKACiiigAooooAKKKKACiiigAooooAKKKKACiiigAooooAKKKKACiiigD9iv+Cc/xG0P4neA/Ef7IPxCcPa6rbyy6fv7Fh+8Rc9wcOPxr8ufix8ONd+EnxD1X4e+IkKXOmTtFkjG9c/K49mXBrP8Ah347134ZeN9M8eeG5TFeaZOk8ZBxnaeQfYjg1+uf7cvgHQv2kfghof7YPwyiEk8duseqxx8sFHBLAd4myD7GgD8WKKKKACiiigAooooAKKKKACiiigAooooAKKKKAJYJ5raZbi3cpIhDKynBBHQg1+lnwh+KXhP9ovwZ/wAKa+LpUanGmLO7bAZyBgEE/wAY/WvzOqzZ3d1YXUd7ZSNFLEwZHU4II6EGgD034u/CPxN8IPFEmga9GTESTBOB8kqdiD6+orymv00+F/xQ8HftLeDh8I/i5sj1iNMWl2cAuwHBB/veo718QfFz4R+KPhB4nk0DX4yYiSYJwPkkTsQfX1FA7HlVFFFAgooooA7rXP8ASfDtrc/3cD9MVwtd3aD7b4Ski6mI/wAua4Skhs+0fhrq1r8WvhzcfD/WGH9oWK7rdz1IX7p/Doa87+LGk3b+GLO9u0Kz2h8qUH16fzFeOeC/FV94M8R22v2JO6FvmH95T1H5V90/ETTtO8ffD9/Eeh4eO5h3kDswGeffPFMEfnZRTmUoxRuoOKbQIKKKKACiiigAooooAKKKKACiiigAooooAKKKKACiiigAooooAKKKKACiiigAooooAKKKKACiiigAooooAKKKKACiiigAooooAKKKKACiiigAooooAKKKKACiiigAooooAKlgieeZIIxlnIAHuair3b4EeCj4k8Vw6hdJm3tnB56Fv/rUAe4fFHWR8PvhFpXhe3O25niVcdxxlj+tfDJJJya+i/2mNeGqePRpkbZSxiCY/wBpuTXlnw38A6/8T/G+neBfDMRmvNRmWJAB0yeWPsByaBs/Tj/glt8BoNe8Y3vx48VxAaZ4fUralx8rXBH3hn+4P1xXDf8ABTb4gy+L/iTpdgWykMUkoX0VjtX9Aa/QbxhfaF8FLTwb+x98O3HmpGL3V5E6+XGNzbsd5H/QV+K37WvikeKfjjqskbbo7Lbar/wAc/qaAPmuiiigQV0mjaTHKp1HUDtgj55/iPpUejaOLzN3eHZbx8knv7VFrGqtfSeRB8sEfCqP50h+ZHq2qy6lN/djXhFHQCsiiimIKKKKACiiigAooooAKKKKACiiigAooooAKKKKACiiigAooooAKKKKACiiigAooooAKKKKACiiigAooooAKKKKACiiigAooooAKKKKAP/R/GeiiigAooooAKKKKACiiigAooooAKKKKACiiigAooooAKKKKACiiigAooooAK/Tv/gnL+0Ppng/xRd/Af4issnhvxYDCqy8pHcONoznoJBwffFfmJUsE81rOlzbMUkjYMrKcEEcgg0AfVX7Yn7Oepfs4/F278OqhbSL4tc6dN2aJj9zPqnQ18oV+6/gDVvD/wDwUS/Zel+HHiSWOPx94ViDW0z43ybRhX9SrgbX9+a/EPxJ4c1nwjr134Y8QwNbXtjK0M0TjBV1OCKAMSiiigAooooAKKKKACiiigAooooAKKKKACiiigCzZ3l1YXUd7ZSNFLEwZHU4II6EGv0p+Fnxc8HftG+Ex8IfjEETVAu20uzgF2A4IPZ/bvX5m1Nb3E9pOl1auY5IyGVlOCCOhBoA9e+M3wW8T/BrxI2k6yhktZCTb3IHyyL/AEPqK8br9I/hD8dPB/xq8ML8G/jqEadwI7W9fAJPRct/C47Hv3r5c+On7P8A4o+DGskzqbrSZ2zb3aj5SOyt6N/OgZ8/0UUUCO48ISLLHcWL/wAa5H8q4yeMxTvEf4SRWz4buha6rGWOA/yn8ad4mtfs2quR0f5h+NIfQ5+vqf8AZy+IC2V+/gLWTutb7PlZ6K5HI+hr5YrQ0rUJtK1KDUbc7XhdXBHsaYjv/i34JuvBHjG5snX9xMxkhbsVJ/pXmFfol4q8P2Pxo+HiS2+P7Rt4xJC3cnHT6Gvz2vLS4sLqSyu0KSxMVZT1BFA2VqKKKBBRRRQAUUUUAFFFFABRRRQAUUUUAFFFFABRRRQAUUUUAFFFFABRRRQAUUUUAFFFFABRRRQAUUUUAFFFFABRRRQAUUUUAFFFFABRRRQAUUUUAFFFFABRRRQAUUUUAXdOsLjU76KwtRueVgoH1r9DfhLo+n+GLKS3TH+hQ75D/tHqa+Xfhvott4f0qbxzrI2qikQg/wA/x6CvaptZufDXwOvfEl4dl3rTHYO4VvlUfgKBo+QfGGsP4g8U3+rsc+fMxH0zgfpX7HfsVfDLQP2Yfgvqv7XfxYjEV1JAyaXC4+YKeAVB/ikbge1fHP7C/wCy5c/H34hrrniNDF4Z0Qie9mbhXK8iME8c9/au1/4KCftQ2vxf8XwfCr4euI/C3h0+VGsfCTTL8uQB/CnRfzoEdf8As7eMda8ca/47/aY8buWnlVwhboi4LbF9lUAV+YuvatPr2uXmt3JzJdzPKxPq7E1+iXjw/wDCl/2PtP8ACY/d6h4hIaQdGxJ8zZ+igD8a/NegbCt/R9H+2k3V0dlvHyzHv7Uuj6Kb3N1dHy7dOWY9/pS6xrAugLKxHl26cADv7mkHmxNZ1gXeLSzGy3j4AHf3Nc/RRTEFFFFABRRRQAUUUUAFFFFABRRRQAUUUUAFFFFABRRRQAUUUUAFFFFABRRRQAUUUUAFFFFABRRRQAUUUUAFFFFABRRRQAUUUUAFFFFABRRRQB//0vxnooooAKKKKACiiigAooooAKKKKACiiigAooooAKKKKACiiigAooooAKKKKACiiigD1f4KfGDxZ8DPiJYfETwhKUuLNx5keflliP3429Qwr9XP2t/g34T/AGsvhJa/tb/AmNZNRjgH9rWceC5CD58qP+Wkf6rX4mV9o/sYftW6v+zb49EOps1x4Y1VhHqNqfmAB481R/eXv6jigD4vIIODwRSV+pv7df7JekaLbR/tH/AwLe+EtaAuJ0t/mW3aTneAOiMTz/dNfllQAUUUUAFFFFABRRRQAUUUUAFFFFABRRRQAUUUUAOVmRg6EgjkEdq++fgZ+0xpGraMPhJ8ckW90qdRFFdSjcUB4Ac9cDs3UV8CUUAfXH7QP7MOq/DZj4u8HE6l4dn+dJE+Zog3IDY6r6NXyPX158Av2oNT+Hijwd43U6n4dn+Ro3+ZogeDtz1X1WvRvjR+y/o/iHRz8VPgLIt9p04MslpGcle5KfTuvUUDPgCNzG4kXqDmu48SRi+0u31SPk4Ab8a4iWKWCVoJlKOhwysMEEdiK7jw866jpM+lSdQMrSYLscHRT5EaNzG3VTg0ymI+tvgt40vLLw8xtzvlsTyn95OuKX45eBrHxFpUXxV8IrvinUG5Rex/vY9R0NeIfC7XRo3ieOKU4iuv3bemT0r6A8IeLYfAvjS58E+Ifn0bViSm77qF+v4E9aCj43or2X4y/DObwBr5mswW067JeBx0Gf4T9K8aoJCiiigAooooAKKKKACiiigAooooAKKKKACiiigAooooAKKKKACiiigAooooAKKKKACiiigAooooAKKKKACiiigAooooAKKKKACiiigAooooAKKKKACiiigArsfBHhebxTrUdoAfJQ7pW9FH+NcrbW813OltbqWdyAAO5NfQ17JbfC/wcLGAg6jeD5j3Gf8ACgaKfim+PirxPYfD3QB/o6SJGwXoTn+gr6H8U/DTxN8aviN4e+AngGIv5Sq07gfJEg4LsewAya80/ZI+Huq+NPHL6paQNcSxfJEMZzK/H6V+rHxB8T+Cv2APhffavuiv/iH4nB29C0akYUeojT9TQB5D+1p8X/Cf7Jnwetf2UPgjKq6pPD/xNLuPG9Qw+fJH8b/oK/LH9n/4fzfEv4q6ZoDKWhEomuD6Rp8zZ+vSvMvEviTWvGGv3fibxFcNdXt7I0s0rnJZmOf/ANVfoX+zRo9p8G/gvrnxy8QIEuLmNorQN1KjgY/3m4/CgSPIf21vH8Xij4nJ4V05s2ehRCEAdPMP3vyGBXy1pOirNGb/AFE+Xbrzz1b6VrzpLqV9ceLPFLkvdSNKQersxzXN6tq0upS4HyxLwqjoBSH6kuraw18wgtx5cCcKo/maw6KKYgooooAKKKKACiiigAooooAKKKKACiiigAooooAKKKKACiiigAooooAKKKKACiiigAooooAKKKKACiiigAooooAKKKKACiiigAooooAKKKKACiiigD//0/xnooooAKKKKACiiigAooooAKKKKACiiigAooooAKKKKACiiigAooooAKKKKACiiigAooooA/Sf9h79sSH4Yzt8Fvi7i/8ABWskwkTfMLVpOCcH/lmc/MO3WsP9tv8AY2ufghqw+I/w6/0/wXqzeZBLH84ty/IRiP4Dn5W/Cvz0r9Tv2Lv2ztI0PST+zx+0IF1HwjqQ+zwzT/P9m38bWz/yzOeD/DQB+WNFfoP+2b+xTq3wJ1A+PvAG7U/Bl+RJDPH8/wBn38hXI6r/AHWr8+KACiiigAooooAKKKKACiiigAooooAKKKKACiiigAr234M/Hbxl8GdYF1o0pnsZCPPtHJ8tx7DsfcV4lRQB+oHif4Z/Cr9q/QX8bfCyaPTfEKLm4tWwu5vR1H6MPxr8/tT8NeJfhr4sbRfFNq9pPG21lYcEeoPQj3rE8KeL/EfgjWYte8MXT2lzEchkOM+xHcV+i3hX4t/Cn9qDQo/A3xehj0/XQu2C7GFDP6q3Y5/hPBoGfnb4qsBbX32mMfJMMj61y9fYPxj/AGefGHw6sGivV+22ScwXcYyCOwb0OK+PyCpKnqKSBjopHhkWWM4ZTkH3FfQPiyNfGXgK18S23NxaDEmOvHB/xr57r2f4R61ELqfwxfnMN4p2g9N2Ofzpgj2P4YeK9K+KvhKT4X+MmBukT/RpW6nHTB9R+or5f8ZeEtV8Fa9NoWqoVeM/K3Zl7EVLrFrqXgjxWws3MUttJvicccdQa+sHXR/2ifAu9NkOv6ev4sR/7K36GgD4goq7qWnXmk30um6hGY5oWKup6giqVAgooooAKKKKACiiigAooooAKKKKACiiigAooooAKKKKACiiigAooooAKKKKACiiigAooooAKKKKACiiigAooooAKKKKACiiigAooooAKKKKACiivRvh54NfxNqX2m7G2ztzukb1x2oA7H4d+HrTQdNk8ca+NqopMKt/P6ntXnd7Pr/xG8Vpb6dC9zdXcgiggjBZuTgKAK7fxfquqePPENt4H8GwPcLvEUMMIJMj9BgDtX7Mfs4/s3+Bv2MPAy/GP4xrHd+LbqPNpa8MYCw4VQf4v7zdq0pUpVZKnTV2zLEYinh6bq1ZWit2dz8D/hv4e/Yg+A0finxhFHP4tv4jJHbEjKyOOE79P4jX48fGfQfjJ8YfGt78QfF9zHeXd0xIRXOI0/hRAeAAK+y/ih8T/E3xW8TS+I/EcpOSRFED8kadlUfzPevOK+2w3DFFU19Yb5vI/KMfx9iXXbwaSgtrrV+Z8UfDn4QeJvGPxGsfBE9s8LSyAylhwsa8s2enSvsL9rzx74f0G00z4SaHg2mlIrSRJ0LgfKD9Op966nR9a1Pw9e/2poziK4ClQ+M8H+lfnV8RYNfh8Y3sniWQzXU0hkMh/iDcgivn83yeWCalF3i/61Ps+G+J6eaxdOa5ai6dGu6OY1DUrrUpvNuG47DsKz6KK8U+pCiiigAooooAKKKKACiiigAooooAKKKKACiiigAooooAKKKKACiiigAooooAKKKKACiiigAooooAKKKKACiiigAooooAKKKKACiiigAooooAKKKKACiiigD/1PxnooooAKKKKACiiigAooooAKKKKACiiigAooooAKKKKACiiigAooooAKKKKACiiigAooooAKKKKAP03/Y+/bhj8C6cPgn8do/7Y8HX48gPP+8Nqr8Ywesft1Haof2wf2Gpvh5an4x/BBv7Z8G3w8/EJ8xrZX5B46x+h7d6/M6vvj9kP9t3xN8A7weDPGgbWPB138k9pJ85hDcFoge3qvQ0AfA9FfsP+0j+xJ4P+KPhZv2hf2R5o7/T7tTPc6ZD1UnlvKXqGHdD+FfkBdWl1Y3MllextDNExV0cFWUjqCDyDQBXooooAKKKKACiiigAooooAKKKKACiiigAooooAKcjvG4kjJVgcgjgg02igD7f+CX7XGo+H7ZPBHxTj/tbRpAI/McbpI1PHOfvKPzrs/i1+yfpPi3Tn+I3wGuEvbacGV7MNyM8nYe3+6a/O2voH4UfGTxx8NGjutAnKqD80TnKOvoV/rTjFydkTOooK8jxG80bVdPvJNPv7eSGeIlXR1KkEeoNOtE1HTbuO+gUh4mDAj2r9TLbWPgn+1Np4s9aRNE8S7cK4wpZvY8Bx7HmvkL4qfArxz8Krxhq8Bnsif3d1ECY2HbP90/WtY009Huc860l70VdHOeP7GLxZ4VtvGNiv72JQJQOuO/5GvJ/B3i7VvBOuw65pDlXjPzL2Ze6mvX/AIe6vCJZfDt/gwXQIAPqf8a8g8Y+HZvDOuzae4+TO6M+qnpWc48rsb06iqR5kfVXj3wpo3xp8KL8QvBagajEv+kQjq2ByD7jt618XyxSQyNFKCrKcEHqCK9E+GnxG1X4d66uoWhL28hCzRdmX/Edq92+K/w40nxtoo+J/wAPAJFkXdcQp1z3OB3HcVJofIVFKQVODwRSUCCiiigAooooAKKKKACiiigAooooAKKKKACiiigAooooAKKKKACiiigAooooAKKKKACiiigAooooAKKKKACiiigAooooAKKKKACiirdhY3WpXaWVmheSQ4AFAGn4b8P3viXVI9Nsx94/M3ZR3Jr6Kk0nWtSurP4PfC20kvdTvCEZYRlst1yR09z2Fem/Bv4GeNPEtzD4J+HdmbrVrzHnXBH7qBT1Z26ADsOpNffOteI/gZ/wTf8ABklhpJi8SfEfUY8yStgsjMOrH+BAeg6mgexY+FPwj+Dv/BP/AMJ2vjn4ryRap471MBbW2GGMTN/DGO2P4n/KvBvib8TvFHxU8SSeIvE0xYkkRRD7ka9lUf1r4s0DXfiF+0f8XZfHnjm9kupYiZpHJOyMDlY0HRR7Cvo89SK+y4Vp02qk2veVvuPy7xErVoujST9xp/ehKKKK+xPzIK+ZP2htLjC2GsoMMS0TH17ivpuvmL9oXVo2+w6MjZYEysPTsK8bP+X6nPm8vvufT8G8/wDalL2fnf0sz5kooor81P3YKKKKACiiigAooooAKKKKACiiigAooooAKKKKACiiigAooooAKKKKACiiigAooooAKKKKACiiigAooooAKKKKACiiigAooooAKKKKACiiigAooooAKKKKAP/V/GeiiigAooooAKKKKACiiigAooooAKKKKACiiigAooooAKKKKACiiigAooooAKKKKACiiigAooooAKKKKAPpD9nP9qD4lfs2eKF1rwfcGaxlIF1YykmGZe/HZvQiv1H8XfCn9nr/AIKHeFpPH/weuIfD/jqJN1zZvhTIwHSRR1BPR1/GvworqvBfjfxX8PPENv4q8GX0un39swZJYmKnjsfUHuDQBsfEz4V+O/hB4om8IfEDT5dPvISRhx8rj+8jdGU+orz2v25+G/7V/wACv2w/C8Pwi/avsoLDWivl2urLhFZ+gYP/AMs29j8pr43/AGnv2DPiX8BXk8T+Hwdf8MP88d7bjc0aHp5qjOOP4hxQB8HUUUUAFFFFABRRRQAUUUUAFFFFABRRRQAUUUUASRJ5kip6mu2RQihV6CuLt2CTqx7Gu2ByMiumh1OHGPVIkhmlt5VngYo6nIZTgg+xr7F+Ff7V2paRZr4S+KEH9saU42F3AaRF6c5+8PrzXxtRW0op7nLCbg7xP0E8Wfs4+DPiJYHx18AtQjLf6w2ZbgHrgd1PseK+cviN4J1rU9BK6zZvaarYDDo4wSB1x6g9RivNPB/jjxT4D1VNY8LXklrMp52n5WHow6EV92+Dv2o/hx8R7ePwx8ZLSOzu5BtW7UfIT0yT1X+VYVYtI7cPUi5aaXPyrIKkq3BFeufCb4p6h8O9W2S5m06c4miPTB/iHuK+kvjX+yD4hspJfGfwuZdX0uceb5cRBkUHnK44YfSvhi6tLqxuHtL2NopUOGRwQQR6g1znWfU/xc+FWn6xp/8Awsj4dYntJxvmij/h9WA/mK+UCCDg17J8JvizqHw91D7LdZn0yc4lhPOM/wAS16T8V/hLp+r6f/wsX4b4ntJx5ksMfO3uSB/MUDPlKilIIODwRSUCCiiigAooooAKKKKACiiigAooooAKKKKACiiigAooooAKKKKACiiigAooooAKKKKACiiigAooooAKKKKACiiigAooroPDHhXxH401qHw74Vs5b+9uGCxwwqWYk+woAw4YpZ5VhhUs7HAA6k1+q/7If7EHinxnCni/xSv9mabjdLdTDGE6kR5746noK9d+Bn7F3w0/Zt8Mr8bv2t76CGaICSDTiwIU9QCBy7+w4FfNf7Uf7f8A42+NCyfD74VxPoPhhMxrHD8s06DgbiuNqkfwj8aBn1H+0D+2t8M/2ePD9x8Hf2WYYZdRwY7rVFAZUboSG/jf36CvxpkHir4h6/Jq2qTS3t5eSbpJ5SWZmY+pqxZ+G4LSP7drj7R1256/Wvpr4MaTZLaz+PtWQQabYgmLdxvYDr9BSuO3c1NVudO+AfwyTSbYh9V1IZY98kcn6KK5j4Q/El/EZHhrUwWu+TEVBO4dccdxXivi/XPEHxi8fH+yoXuHnfyraFASQueOPfqa+6NB8P8Agn9jrwKfFHiry7/xbqEeIYODsyOg9AP4jXfl+Png6ntafzXc8jOcno5pQeHradU+zIiCDg0lfENz8bPH91rVzrUl0N1zIZDHtGwZ7KOwp978bvHV5F5SSxw+6KM/rmvsIcUYZxvKLTPzKp4f45T5YTi13u1+Fj6x8V+L9H8Jae17qUgDY+SMfeY+gFfB/iXxBe+J9Zm1i+PzSHgf3VHQVQ1HVNQ1a4N3qUzzSH+JzmqFfNZtnE8c1FK0V0/zPuuHeGaeUxc2+ao9328kFFFFeMfUBRRRQAUUUUAFFFFABRRRQAUUUUAFFFFABRRRQAUUUUAFFFFABRRRQAUUUUAFFFFABRRRQAUUUUAFFFFABRRRQAUUUUAFFFFABRRRQAUUUUAFFFFABRRRQB//1vxnooooAKKKKACiiigAooooAKKKKACiiigAooooAKKKKACiiigAooooAKKKKACiiigAooooAKKKKACiiigAooooAUEg5HUV+gX7Mv7f/wARvgnFH4P8aKfEnhd/ke1uDukiQ9fLZs8f7J4+lfn5RQB+3fjb9kz9nb9sPQJviZ+yrqkGla2ymS40uQ7F3nqGj6xnPdcrX5F/E34S/EL4PeIZPDPxD0ybTrlCQN6/I4HdG6MPoaxvBPjzxj8Oddi8S+CNRn029hOVlgcqfocdR7Gv1q+Gn7fHwp+OPh6P4X/tj6LBcK48tNUSPgE8BmA+ZG/2l/KgD8Z6K/WL41f8E2Lq40lviN+y/qsXifRJh5i2qyK0yr1wjjh8ehwa/LTXfD+ueGNTl0XxFaS2N3CdrxTIUdSPUGgDIooooAKKKKACiiigAooooAKKKKACuo068WaMROfmX9a5enKzI25TgirhPldzKrSVRWZ3VFczDq86DEgDVM+tMR8iAV0+1icLw0zedgiF26CuQvLk3Mxft2rf0fX1hmaK/UNHJwTjpUmt6AIl+36b88Lc4HasKlXm0R10MPye89z6f/Z1+P3inwoB4ZW53onMUcp3Iw/u+x+lfRWs63+z58eb1vDnxFtV8P8AiDolwMIHJ6FX6EH0avywtbqeyuUurZikkZypHYivoeRbL4qeFxNFhNUtB+J/+sayOk6f4rfsg/EPwEj6v4dA1vTPvLLbjLhfVlHX6jNeW/C/4qa18NNTNldq0lhI2J7d+o9SAehrrfhr+0r8VfhHdDS1uGvLKI7XtLrLKAOoUnlfwr6ni8VfsvftKRfZ/E9uvhzXZBjzeI8t7P8Adb/gVAHgXxJ+E2j+MNK/4WJ8MCssco3zW6evcqOx9RXyPJG8TmOQFWU4IPUGv0Kf4B/GL4F3517wK48RaJJ80kcJ+Yp67PXHda43x18MNB+KWnSeK/BCfZNUTm4tHGxi3cMp6N/OgD4koq5f6fe6XdyWGoRNDNEcMjDBBqnQIKKKKACiiigAooooAKKKKACiiigAooooAKKKKACiiigAooooAKKKKACiiigAooooAKKKKACiiigAoAJOBXvPwX/Zr+L/AMetVTT/AIf6TLNCWw93ICkEfuznj8Bk1+qnhr9m79lD9i/TofFXx+1KLxL4nADQ6egDgP2CQ9+f4n4oA+F/2bP2Dvi58fZ4tZvIG0Pw/kM97cqVLL38tTgt9elfpbfeOP2YP2C/Cs2j/C61j1nxGE2TXkhDsXx3f6/wrXgnxa/bP+Inj7T3trJR4a0ILthsrc4kZO3mMMdv4RgCvzZ8YeL7S+vjd3zec6n5I85A9/r70rlJdzpPjB8WPid+0X4qfxX8QL1/IBPkwk4SNPRU6D615TLqukaDGbfS0EkvQt/9eue1PxDf6iShOyP+6tQ6DoepeJNVh0fSozLPOwVQP5n2osF+x3nw+8Iaz8UvFMdg7N5CHdM/8KIOv4mvffiNPq3jTVLT4HfCq3aaODak3l/dyOzHsB1Jr3/wB8E9e0XwrH4U8IKIbm7H+l37j5Yx/ER6kdhWJ4v+LPwy/Zl0SfwX8KFTU/EUwIub5sPtc9Szdznoo4FMRdtLH4b/ALGfhUX+pmPVfGN5H8iDB8vPp/dUdz1Nfnd468d+JPiN4in8T+KLgz3Ex7/dQdlUdgKyfEPiPW/Ferza74huXurqc7nkc5P/ANYe1YlAgooooAKKKKACiiigAooooAKKKKACiiigAooooAKKKKACiiigAooooAKKKKACiiigAooooAKKKKACiiigAooooAKKKKACiiigAooooAKKKKACiiigAooooAKKKKACiiigAooooA//1/xnooooAKKKKACiiigAooooAKKKKACiiigAooooAKKKKACiiigAooooAKKKKACiiigAooooAKKKKACiiigAooooAKKKKACiiigD3b4K/tI/F34B6wup/DzVZIIsgyWrkvBIPRkPH4jmv1F0b9qn9kv9r/S4vCf7S+iRaBrrgJHqUQwm49CJR8y/Rsj3r8RKKAP1E+Nn/BMvx94cs38X/Ay+j8XaI48xFiZftAX2x8r/AIc+1fmhrWha14b1GTSPEFpLZXUJ2vFMhR1PuDg17n8Ff2pvjV8Bb9Z/AesSra5y9nMTJA49CjcD6jBr9L9H/bD/AGSP2ptOi8MftP8AhuPRtUcbF1GJcoGPcSLh0+hyPWgD8SKK/W74n/8ABMK+1TTX8a/sz+IbXxNpcgLx27SL5mOuFkUlWPscV+ZPjr4aePvhnqraN490i50q4U423EZUH/db7rD6E0AcPRRRQAUUUUAFFFFABRRRQAUUUUAFdBo2vT6Y3lSfPCeqn+lc/RQB3eoaFa6pEdR0Ug55KVi+H9c1Hwrq6X9tlWQ4dT/EO4NZthqV1pswltmx6jsa7QSaR4nj2viG5x+f+NLYrc9B8W+H7Dx3o6+L/DQH2hV/exjqcdfxFfPpDI2DkEH8RXo3h7VtZ+H+qiZwZLVziQDoR/Q12HjbwdZeIbH/AITHwjh1cbpY16+5x6+opiaE+Gn7R3xS+F8iR6NftcWanm2uPnjI9BnkfhX3D4H/AGo/gj8QbuNvHunjQ9VYbTcKP3bH3def++hX5UEEHB4IpKBXP2A+Kn7M3hf4t6T/AG74LvIZrjbmKeNgd3oGI4P86/Ljx18OPGHw51d9H8V2Uls6n5WKnYw9Vboad4L+Jvjv4fXgvfCOpTWhB5VWJQ/VTwa/QP4YftbeFPiLZp4O+NunW8ssnyidkUxv9QfumgZ+YNFfrL4w/Y++D3j2NtQ+Ht+dIuH+YR53xkn/AGScj8DXx14//ZE+MngbfcxWQ1W1XJ820O8490+9+WaAsfL9FWryxvdOuGtNQheCVeCkilWH1Bwaq0CCiiigAooooAKKKKACiiigAooooAKKKKACiiigAooooAKKKKACiilALEKoyTQAlFfVXwX/AGMfj/8AHGaOXwxoslpYORm9vQYYQPUbhub8Aa/RXQ/2QP2R/wBlizj8Q/tLeI4tc1aMb10+LkFh2EKks31bAoA/Kz4Rfs8fF7446omm/DzRprtScNcMpSBPdpDx/Wv1J8J/sOfs6/s06PF46/ay8QwXl2g3ppsTYQsOdoUfPJ+grm/id/wUQ8RzaU3g39nLRIfCWjouxbl0XzivTKRqNqfjk1+eN3f634/8RvqGu3lxrepSnMk87mTb7kngD6UrjSP0D+KH/BQfxPq+n/8ACu/2XdFj8L6Mo8pLoxqsxXplEAwn15NfEl81r4Znk8aeP72XVNYuSW3zMXcsfTJP50ms+IND+Hdl5KYn1Bxwo7fX0FfNeta3qOv3zX+pSF3b8gPQUx6I6XxP4/1jxHcMxPlRdlX0+tcKSWOTzVmysb3UblbPT4nnmc4VI1LMT7Ac19mfCr9ivx54vWPV/G7jQ9POGIk5mZf93ov4/lQLc+PtG0TV/EOoR6VolvJdXEpCrHGpYkn6V+pnwd+BvhH4D+Fj47+Ll1FbXci7mViMoOuwdyfXFdDrviT4J/sp+GGi8IWcdzqbrtR2w0kjepY84+nFfmB8Rvih4x+KOtya14ru3mLElIs/u4x6KvQUBsfUnxy/bE1fxZDL4T+GStpelco0w+WWUe2Pug/nXw07vI5kkJZmOSTySabRQIKKKKACiiigAooooAKKKKACiiigAooooAKKKKACiiigAooooAKKKKACiiigAooooAKKKKACiiigAooooAKKKKACiiigAooooAKKKKACiiigAooooAKKKKACiiigAooooAKKKKACiiigD//Q/GeiiigAooooAKKKKACiiigAooooAKKKKACiiigAooooAKKKKACiiigAooooAKKKKACiiigAooooAKKKKACiiigAooooAKKKKACiiigAooooA9U+GXxu+Knwd1NdV+HOt3OmuCCUjc+W2OzIcqR9RX6X+Bv+CmfhzxvpK+Dv2qPCVrrto42vdwRqW9NzRNxn/dIr8fKKAP2yvf2O/wBjP9pi2bWP2bPF0eiajIN32CZsgE9vKkIcf8BJFfEXxd/YB/aS+Ejy3NxozazYR5IutO/ejA7lPvj8jXxpZ3t5p1wt3p8rwSocq8bFWB9iOa+1PhH/AMFBv2k/hOI7Iav/AG3p6AL9m1EecNo7Bz84/A0AfFN1aXVjcNaXsTwyocMjqVYH3B5FV6/auy/bW/Y4/aBtl0v9o/wQmm3sg2tewRiRQT3DptkX9aq6p/wT0/Z1+Mds+sfszeP4C7jctncSLLjPQYysq/iDQB+L1FfbXxO/4J8ftPfDMvPJoZ1i1U8Tac3nZHrs4f8AQ18d6xoOt+HrttP1+znsp1ODHPG0bA/RgDQBk0UUUAFFFFABRRRQAUqsyncpwRSUUAddpvimWNPsupr50R4yeo/xr0fwlq6aPcm50OUPbSH97Aen1Hoa8KqaC4ntpBLbsUYdxSsNPue++OPh7b6vbnxL4VGS3zSQj9SB6+1fPzo0bFHGCOCDXp/hf4l6hos4+1L5kZ+9jv8AhXf6v4W8NfEe2OteGJViuwMunTJ9x2+tMb12Pm+gEg5FdDqvhfWtHlaK7hPy9xzXPkEHB4NBJ9D/AAu+P+u+DSmk68WvdO+7yf3kY/2T3HtX2TpnxD8ePpw8TfBzW1v7fq+n3f7xfdQT8yH26V+V1dL4X8XeIPB2orqWgXDQSDqAflYejDoRQO5+htz+0j8IvGVwfD3x+8ICzu1+V5lQPg+o6OB9Capz/syfs8/E9De/CTxStpK/It5HDgE9tr4cV5ZpfxF+G3xksU0P4iW6WWo42pcDgE+obt9DxXlvjj4EeMPBcjat4dZr6yHzLLAfnUe4H8xQB2njP9i/40eFd8+m20er269Htm+bH+42D+Wa+Ztb8M+IvDdwbXxBYz2UgOCJo2T+Yr1jwf8AtG/GbwG6w6VrM7RR8eTcfvE47YbOK+ldF/bmj1aAaf8AFHw1a6lERhniABI/3XBH8qAPz2or9JzffsP/ABS4uIn8O3UncBoQCf8Adyn5is6+/Yn8G+Jojd/C7xhb3QPKxylH/DKEEflQKx+dNFfWXiX9i7446BuktbOHUY1728gJP/AWwa8I1z4YfEXw0xGu6JeWwXqWhbb+YBFAHCUU+SN4m2SqVI7EYNMoAKKKKACiiigAooooAKK9S8C/BL4t/EudYPA3h6+1HecB44W8v8XICj86++/hz/wSo+MuuRpqfxP1Oy8M2WNzhm82UD36IP8Avo0AfllXfeBfhb8RfiZqC6Z4D0a71SZjj9xGzKPq33R+Jr9krP4Kf8E8P2cAtx4y1FvGWrQ8+UG89dw/2ExGP+BE1h+M/wDgo9/wjtgdB+BXhqx8OWSDak0qqXA9Qi4Ufjmi47HkPwy/4JW/E7VLZNe+Mmr2nhfTlAeRSwkmC98kkIv5mvfrW+/4J9fspjb4WsT448QwcCU4nUOO+9v3a8/3Qa/NH4lftKfED4kXDzeNddvNU3EkRGQrEPogwoH0FeC3ni7UJgUtgIV9uv50gsup+lPxf/4KDfGvxzA+l+HriHwjpJG0Q2XExX0Mp5HH90Cvz41jxrHc3kl9I8l9dSHLzTMWZj6lmyTXHaZo/iHxTfLZ6VbzXk0hwFRSx/SvsL4a/sl+M7rZqOtae7SdQknyIv1zyfyot3Gn2PA/DnhbxJ4zYXmpSG1sByW+7ke3+NbniDx3ovhKyPh7wQi7xw8/Xnvz3PvX2nqf7Luu6hB/xXniK10HS06xQkbio9XfaB+Vcxn9iv4M/MM+Jr+P/tsM/jiMfrTA+FfDHw8+InxJ1A/8I5ptzqEkh+aQKduT6ueB+dfYHhH9iKTTLMa/8Zdag0i0X5miRhux6F24H4A1Q8XftzeJDbHSfhjpNtolqBtRyoeQD2AAUflXzvZJ8WPjvrn/ABMb24vhnMkszHyox/L8BQI+1bX4wfAX4S3C+GfgPoI1zV3OwXBUkbvUyMCxH0wKq+OfjP4i8Kab/bXxHvvtWq3CkwWFudsMWfYdcdyfwrxC/wDEHgb4DaW+i+Fguoa9Iu2W4PIQ/wBPoK+T9b1zVfEWoyaprEzTzSHJZjn8B7UBc0fFvi7WvGmsSazrcpkkc8Dso7AD0rmKKKBBRRRQAUUUUAFFFFABRRRQAUUUUAFFFFABRRRQAUUUUAFFFFABRRRQAUUUUAFFFFABRRRQAUUUUAFFFFABRRRQAUUUUAFFFFABRRRQAUUUUAFFFFABRRRQAUUUUAFFFFABRRRQAUUUUAFFFFAH/9H8Z6KKKACiiigAooooAKKKKACiiigAooooAKKKKACiiigAooooAKKKKACiiigAooooAKKKKACiiigAooooAKKKKACiiigAooooAKKKKACiiigAooooAKKKKACr2napqekXC3mk3EltKpyHiYowP1BqjRQB9n/DP9v39p74YpHaWPiB9StI8AQagBOuB2DN8w/A19j6R/wUy+FvxDs10f8AaI+Hlpfo42vNbKjj3OyQZ/8AHq/GmigD9pV+HP8AwTD+PAMnhbWpfB1/L0jkdoAGP+zJuj/IiuQ8R/8ABKLX9Tt21T4N+MtN122PKiQhT9N8Zdc/gK/Imuu8NeP/ABx4NuRd+E9XvNOkXo1vM6fyNAH0j47/AGD/ANqTwAXfUfC897Cn/LWyInB/Bfm/8dr5f1vwr4n8NTm18Radc2Ei8FbiJ4z/AOPAV9j+Bf8Agov+1X4ICxHX/wC1YV/5Z38ay5/4FgN+tfTmjf8ABVltatxp/wAXPAWnatC2A7QnaT6krIHB+nFAH4+9aK/Z5fjz/wAEy/iov/Fc+C5fD9zLnc8MO1V998DA/wDjtMX9l/8A4JyfEk7vAfxDfSJpRuWOacKF+onUfzoA/GSiv2Jvv+CUtpriCf4afETTtSRxlA6q2R/vRyHP1xXkHiP/AIJWftO6PubSBp2qIOnkzlWP4OoH60AfmrRX1xr37Cf7Vvh0kXfg+6mC9TA0co/8dbNeQax8BfjZoBI1jwnqsG3qWtJcfmFIoA8mrU0jWdR0K9W/0yQxyL6dD7EVLd+HPENgxS+sLmEr18yJ1x+YFY7KynDDBHrQB9P6D4z8P+OrdbDVwttfAYB6Bj7H+lcj4r8PQ6RLjWbUmJvuzoMr+OORXhysUYMpwR0Ir1zwt8VLqxhGleJE+22h+XLcsB+PUUWKTOdbwzpd6N+mXQ57E5/+vWTc+E9Xg5RRIP8AZNetaj8PNB8TwHWPAlyqseTCTxn09RXld7J4p8NXBtb/AMyJh2fkH6HpSDQ56WyvLc/vomXHqK9Z8BfG3xj4GK2ay/a7IHmCbkY9FPUVx0PjO9AC3MSSD8q63R47LxBCbme0VE9Tjn6VcISm+WKMqtWFKPPN6HvJt/g38c491uRo+sMOnCkt/Jv514R45+CPjbwSzTyQG8tB0mhBbj/aHUV1FjpthpxDWUaxkdx1/OvWfDnxR1/RFFrdkXlv0KScnHsa7JYGSV0zzIZvTcrSVl3Ph0jBweoq7Z6lqOnyCawnkgcdDGxU/oa+777wV8KPizlreFtN1F+8YxlvcD5TXmutfshfEu0ZpNCt59Si7GKFy2P93/CuOcHB2kj06dSNRc0Hc888NftH/GnwoFTS9fuWjX+CZvNX8nzXuuhft5fE+zUReI7Gy1NB1LIUY/8AfJx+lcJpP7Gv7QGtkDTvDWotn+/btGP/AB8rXrGif8E1P2odaKsdJS0Rv4p5UXH4Ak1NzTU3F/bB+DfihPK8e+CImLfeZBHJ/wChKD+tNPiT9hLxbxeabPpUj9SEdAP++GI/SvTdD/4JHfF+5QTeJvEGm6anVsbpSB/46K7iP/gmv+z/AODV874o/FK3iC8skTwQn6fOzn8hQFz58PwQ/Y58Sc6B4uazLdA8wGP+/qj+dQH9ir4d6w2fC/jq3l3fdVjEx/8AHWBr6Vg8Bf8ABKv4X/vNZ1mXxJMn8O+WXJ+iBU/M1eT9un9i74WHZ8Ifh6sskf3JnijiPHuQx/WgD5tj/wCCaXxQ1HDaBqcV0rdCYHUfnkiug03/AIJNftEX0y/aL7TLaE9WkkfcB/uhf611vjD/AIK2/FPUFa38F6PZaVH0VtpkcD/gRx+lfI/jT9uL9o3xvIx1PxFdRoxzshcxKPwTaKAP0a8Hf8Enfhx4d2Xfxc8YvcEctDaBYR9Mtub+VfSOg/A79kb4MxLN4H8IR67fx/dluT5hyO+6Xdj8BX8+1x8e/jDc/f8AEN6P+2rfzzVUfHH4vCPyh4jv9p/6bN/jQB+/vi/42/tL3EJ0v4Y6Lo/h22A2q+7zHA7fwhR+VfGXjz4YftXfEyZpfGfiZLlT/A9xIIx9EVQMV+Y7/Gb4sOpVvEV/g/8ATd/8ayrj4l/EO6GLnXL5/wDenc/1pWC595P+xf49my+q+JrGzQ9dqEn82YVSP7HHw4sD53i7x9AMfeCtEv8ANjX5/S694i1CTbNeXEztxguzE/rXdeH/AIX+JtdxdakWtoTyTJksR7D/ABpqN3ZClKybZ9zaR+z3+yTZqZrrxBLqYTrslyCf+2a4/WuxstP/AGS/CZ3aT4f+3SJ0aRC/P/A2NfNuk6VaaNYR6faLhIxj6+5rSr6OllFNJe0bbPiMRxNWcmqKSXTufUB/aB0TRYvI8GeHbe0UDAJAH6KB/Ovnv4qfHj49X9vJdeHtTFrbAfNFbxhXA9m6msOkIDAqeQa6JZZQceVKxx08/wAXGanKV126HxrrnizxR4kuGufEGoXF5ITyZZGb+ZrEt7ee6mW3tkMkjnAVRkk/SvpWP4E3fifXp9QhuYrHTR80kjnlSeoAropfGPwn+D0LWfgq3GraoBg3MnKg/X+gr5irSdObpy6H3uGrxr041obM5nwd8BxbWQ8UfE64Gm2CfN5JOJHHofTPp1pPG3xwt7bTj4R+GNuNP09BsMqjDuPUemfXrXjnjDx94n8cXpvNeuWkGfljHCL9F6VxlZmw+SSSZzLKxZmOSTyTTKKKACiiigAooooAKKKKACiiigAooooAKKKKACiiigAooooAKKKKACiiigAooooAKKKKACiiigAooooAKKKKACiiigAooooAKKKKACiiigAooooAKKKKACiiigAooooAKKKKACiiigAooooAKKKKACiiigD/0vxnooooAKKKKACiiigAooooAKKKKACiiigAooooAKKKKACiiigAooooAKKKKACiiigAooooAKKKKACiiigAooooAKKKKACiiigAooooAKKKKACiiigAooooAKKKKACiiigAooooAKKKKACjpyKKKANbT9e13SZBNpd7PbuOhjkZSPyNeueHP2mPj/4TVE0DxfqlukZyqC4cr/3ySRXhtFAH3JoP/BRv9rfQSSPEv2vPa4gik/mtetaV/wAFYP2jbSBYdXs9J1Ejq0sBUn/vhgP0r8waKAP14h/4Kz+JLmNY9e8CaRc/3iCwz+BzW/8A8PM/gpqcIHiT4T2k8h+8VeLH5GI/zr8aKKAP2bT9uL9hvV0/4qD4SxRMepSC3c4+uFqlL+1H/wAE4NRci7+Gc0YfqVt4hj/vl6/HGigD9n9I/aD/AOCZMVwJl8GXliychkh6+3yyV0eoftGf8Ex9XgNrqXhm7lRuzW5P/tSvw9ooA/cfSvEX/BLLVoDd6d4Zdyg3FDGwbj/ZMlb9v8Yv+CeGmxKtl4LmIj+6vkDH6vX4U6VObfUYZMkAOM49M19DqQVBHeu/B0lNNtnkZniJU3FJK3mj9WB+0z+w1p3/AB4/D0ykcjfbw4z+LGpP+G2P2YdL50P4ZxZHT5IU/khr8pKK7Pq0et/vPL+v1OiX3I/VKf8A4KL+ErEf8U38P7SDHTe68f8AfKCvMvG3/BVX4paMI/7A8M6VAr8Av5jY/JhX59V594+R3tIgik4bqB0rHEYeEYOSR1YLG1Z1owk9GfptoP8AwVe8eawotfEcMOlu3Bkt4g6fk2SKo+KPj38afinC9x4C+Jc9v5nPkRlEA9vlCuK/IA8cGp7a7ubOUT2kjROOjKSD+leUfQn1T8QtH/agnd5/EWr6jq8fd0uZJMj/AHSc/pXzDqUOsQTlNYWZZM8ibcDn/gVeneHfjr8SvDu2OG/a5jX+Ccbx+Z5r1m0/aU0XWIhbeONAhuVPBZMH9GB/nQM+RsCivsMT/sw+LRmWN9Llb2ZAD/wHIqJ/gH8Ndc+fwr4mTnorsjf1BoCx8g0V9T3v7KfixBu0zULa4HbOV/xrmZf2aPifHIESGBx/eEgx+tArHz9RX1Fpv7MHifIfV5QB3WLB/U/4V20PwUtPDiCSDR5b+Xtkq38yAKB2Pj/S/D+tazII9Mtnlz3A4/PpXqul/B6aKMXnim7S0iHJUEZ/M8V7Je6B8Zpl+y+HtFisY+gLOhP88fpXHXHwA+MPiCXzdcuIlz/z0lJA+gAxQBhP4q+HvgpTD4bthd3A48w8jP8AvH+lYei+P9f8S+KraG+l8uAtxEnC+2fWvQYv2aorIeZ4k8Q2lsO4GM/+PMKv23hD4B+DJReX2uyXtzFyvlHI3D2UY/WtKUuWcZPozHEwdSlKC6pna0Vm6XrGna3bfbdMffETgZ4P4itKvtYyUlzI/KZwcJOElZoKKKa7rGpdzgAZJpkniXxf1W+tlttPtp3SOUEuisQGx0yK8Crt/H+vLr2vvJCcxQ/Invjqa4ivj8bUVStKUT9NyqjKjhadOe9vz1CiiiuU9AKKKKACiiigAooooAKKKKACiiigAooooAKKKKACiiigAooooAKKKKACiiigAooooAKKKKACiiigAooooAKKKKACiiigAooooAKKKKACiiigAooooAKKKKACiiigAooooAKKKKACiiigAooooAKKKKACiiigD//T/GeiiigAooooAKKKKACiiigAooooAKKKKACiiigAooooAKKKKACiiigAooooAKKKKACiiigAooooAKKKKACiiigAooooAKKKKACiiigAooooAKKKKACiiigAooooAKKKKACiiigAooooAKKKKACiiigAooooAKKKKACiiigAooooAUEg5Fe3+F9ai1OwWNz+9jGGH9a8PqxbXVxZyie2Yow7it6FZ0pX6HJjMKsRDl6rY+kKK8w0/wAfMqhNQi3Y/iX/AArRm8f6eq5hidj74FeosVTavc+fll9dO3KdzPPFbRNNMwVV5JNcLb/FTUNNmeK2t4ZYC38YySPrXDax4k1DVztkOyP+6On41z9cGJxPtPdjsexgMB7H95Pf8j2r/haGgXSn+1NDhdj3XH9RTv8AhLvhdcKGudGKN324/wDrV4nRXGepc9mPiD4Sk/8AIKl/P/69KPEHwlBz/ZUv+fxrxiigLntjeMfhlbLm00Qu3bdj/wCvSD4r6XZMDo+jQxY7nr+gFeKUUBc9jn+OPjduLGRbYf7Az/Oufn+LHxGuHDyavcgjptcgfpXnlFArnpcPxj+J1uu2LWbjHu2f51Y/4XX8U/8AoMz/AJivLKKAuej3Hxd+JV1/r9ZuT24cj+Vc/d+NPF1+MXmp3Mg9GkY/1rmKKAJ5bm5nOZpGc+5JqCiigDqfDHi3U/DFz5lo26NvvRnoa990r4n+Gb+MfaZDbP3Djj8xXyzRXbhsfVoLljqvM8vHZPQxb55qz7o+uLv4g+ErRC5u1f2QEmvHvF/xLutajaw0kGG3bhifvN/hXlFFaV8zq1Vy7LyMMJkOHw8vaayfmFFFFece2FFFFABRRRQAUUUUAFFFFABRRRQAUUUUAFFFFABRRRQAUUUUAFFFFABRRRQAUUUUAFFFFABRRRQAUUUUAFFFFABRRRQAUUUUAFFFFABRRRQAUUUUAFFFFABRRRQAUUUUAFFFFABRRRQAUUUUAFFFFABRRRQAUUUUAf/U/GeiiigAooooAKKKKACiiigAooooAKKKKACiiigAooooAKKKKACiiigAooooAKKKKACiiigAooooAKKKKACiiigAooooAKKKKACiiigAooooAKKKKACiiigAooooAKKKKACiiigAooooAKKKKACiiigAooooAKKKKACiiigAooooAKKKKACiiigAooooAKKKKACiiigAooooAKKKKACiiigAooooAKKKKACiiigAooooAKKKKACiiigAooooAKKKKACiiigAooooAKKKKACiiigAooooAKKKKACiiigAooooAKKKKACiiigAooooAKKKKACiiigAooooAKKKKACiiigAooooAKKKKACiiigAooooAKKKKACiiigAooooAKKKKACiiigAooooAKKKKAP/1fxnooooAKKKKACiiigAooooAKKKKACiiigAooooAKKKKACiiigAooooAKKKKACiiigAooooAKKKKACiiigAooooAKKKKACiiigAooooAKKKKACiiigAooooAKKKKACiiigAooooAKKKKACiiigAooooAKKKKACiiigAooooAKKKKACiiigAooooAKKKKACiiigAooooAKKKKACiiigAooooAKKKKACiiigAooooAKKKKACiiigAooooAKKKKACiiigAooooAKKKKACiiigAooooAKKKKACiiigAooooAKKKKACiiigAooooAKKKKACiiigAooooAKKKKACiiigAooooAKKKKACiiigAooooAKKKKACiiigAooooAKKKKACiiigAooooAKKKKACiiigD/9b8Z6KKKACiiigAooooAKKKKACiiigAooooAKKKKACiiigAooooAKKKKACiiigAooooAKKKKACiiigAooooAKKKKACiiigAooooAKKKKACiiigAooooAKKKKACiiigAooooAKKKKACiiigAooooAKKKKACiiigAooooAKKKKACiiigAooooAKKKKACiiigAooooAKKKKACiiigAooooAKKKKACiiigAooooAKKKKACiiigAooooAKKKKACiiigAooooAKKKKACiiigAooooAKKKKACiiigAooooAKKKKACiiigAooooAKKKKACiiigAooooAKKKKACiiigAooooAKKKKACiiigAooooAKKKKACiiigAooooAKKKKACiiigAooooAKKKKACiiigAooooA//X/GeiiigAooooAKKKKACiiigAooooAKKKKACiiigAooooAKKKKACiiigAooooAKKKKACiiigAooooAKKKKACiiigAooooAKKKKACiiigAooooAKKKKACiiigAooooAKKKKACiiigAooooAKKKKACiiigAooooAKKKKACiiigAooooAKKKKACiiigAooooAKKKKACiiigAooooAKKKKACiiigAooooAKKKKACiiigAooooAKKKKACiiigAooooAKKKKACiiigAooooAKKKKACiiigAooooAKKKKACiiigAooooAKKKKACiiigAooooAKKKKACiiigAooooAKKKKACiiigAooooAKKKKACiiigAooooAKKKKACiiigAooooAKKKKACiiigAooooAKKKKAP/0PxnooooAKKKKACiiigAooooAKKKKACiiigAooooAKKKKACiiigAooooAKKKKACiiigAooooAKKKKACiiigAooooAKKKKACiiigAooooAKKKKACiiigAooooAKKKKACiiigAooooAKKKKACiiigAooooAKKKKACiiigAooooAKKKKACiiigAooooAKKKKACiiigAooooAKKKKACiiigAooooAKKKKACiiigAooooAKKKKACiiigAooooAKKKKACiiigAooooAKKKKACiiigAooooAKKKKACiiigAooooAKKKKACiiigAooooAKKKKACiiigAooooAKKKKACiiigAooooAKKKKACiiigAooooAKKKKACiiigAooooAKKKKACiiigAooooAKKKKACiiigD/9H8Z6KKKACiiigAooooAKKKKACiiigAooooAKKKKACiiigAooooAKKKKACiiigAooooAKKKKACiiigAooooAKKKKACiiigAooooAKKKKACiiigAooooAKKKKACiiigAooooAKKKKACiiigAooooAKKKKACiiigAooooAKKKKACiiigAooooAKKKKACiiigAooooAKKKKACiiigAooooAKKKKACiiigAooooAKKKKACiiigAooooAKKKKACiiigAooooAKKKKACiiigAooooAKKKKACiiigAooooAKKKKACiiigAooooAKKKKACiiigAooooAKKKKACiiigAooooAKKKKACiiigAooooAKKKKACiiigAooooAKKKKACiiigAooooAKKKKACiiigAooooA//Z;" vertex="1" parent="1">
          <mxGeometry x="885" y="107.33" width="210" height="140.17" as="geometry" />
        </mxCell>
        <mxCell id="Kzq9Bu8EnrHGI0cKUDUz-28" value="" style="shape=crossbar;whiteSpace=wrap;html=1;rounded=1;" vertex="1" parent="1">
          <mxGeometry x="930" y="257.5" width="120" height="20" as="geometry" />
        </mxCell>
        <mxCell id="Kzq9Bu8EnrHGI0cKUDUz-31" value="" style="ellipse;whiteSpace=wrap;html=1;aspect=fixed;" vertex="1" parent="1">
          <mxGeometry x="980" y="257.5" width="20" height="20" as="geometry" />
        </mxCell>
        <mxCell id="Kzq9Bu8EnrHGI0cKUDUz-32" value="Sun mass" style="text;html=1;align=center;verticalAlign=middle;whiteSpace=wrap;rounded=0;fontStyle=1;fontSize=15;" vertex="1" parent="1">
          <mxGeometry x="940" y="277.5" width="80" height="30" as="geometry" />
        </mxCell>
        <mxCell id="Kzq9Bu8EnrHGI0cKUDUz-33" value="Gravitational field" style="text;html=1;align=center;verticalAlign=middle;whiteSpace=wrap;rounded=0;fontStyle=1;fontSize=15;" vertex="1" parent="1">
          <mxGeometry x="920" y="307.5" width="140" height="30" as="geometry" />
        </mxCell>
        <mxCell id="Kzq9Bu8EnrHGI0cKUDUz-34" value="Events&amp;nbsp;" style="text;html=1;align=center;verticalAlign=middle;whiteSpace=wrap;rounded=0;fontStyle=1;fontSize=15;" vertex="1" parent="1">
          <mxGeometry x="940" y="337.5" width="80" height="30" as="geometry" />
        </mxCell>
        <mxCell id="Kzq9Bu8EnrHGI0cKUDUz-35" value="Physics" style="text;html=1;align=center;verticalAlign=middle;whiteSpace=wrap;rounded=0;fontStyle=1;fontSize=15;" vertex="1" parent="1">
          <mxGeometry x="940" y="367.5" width="80" height="30" as="geometry" />
        </mxCell>
        <mxCell id="Kzq9Bu8EnrHGI0cKUDUz-36" value="" style="html=1;verticalLabelPosition=bottom;align=center;labelBackgroundColor=#ffffff;verticalAlign=top;strokeWidth=2;strokeColor=#0080F0;shadow=0;dashed=0;shape=mxgraph.ios7.icons.star;" vertex="1" parent="1">
          <mxGeometry x="900" y="281.25" width="20" height="22.5" as="geometry" />
        </mxCell>
        <mxCell id="Kzq9Bu8EnrHGI0cKUDUz-37" value="" style="html=1;verticalLabelPosition=bottom;align=center;labelBackgroundColor=#ffffff;verticalAlign=top;strokeWidth=2;strokeColor=#0080F0;shadow=0;dashed=0;shape=mxgraph.ios7.icons.pointer;" vertex="1" parent="1">
          <mxGeometry x="900" y="312.5" width="20" height="20" as="geometry" />
        </mxCell>
        <mxCell id="Kzq9Bu8EnrHGI0cKUDUz-38" value="" style="html=1;verticalLabelPosition=bottom;align=center;labelBackgroundColor=#ffffff;verticalAlign=top;strokeWidth=2;strokeColor=#0080F0;shadow=0;dashed=0;shape=mxgraph.ios7.icons.stopwatch;" vertex="1" parent="1">
          <mxGeometry x="910.3" y="347.75" width="17" height="18.2" as="geometry" />
        </mxCell>
        <mxCell id="Kzq9Bu8EnrHGI0cKUDUz-39" value="" style="html=1;verticalLabelPosition=bottom;align=center;labelBackgroundColor=#ffffff;verticalAlign=top;strokeWidth=2;strokeColor=#0080F0;shadow=0;dashed=0;shape=mxgraph.ios7.icons.wifi;pointerEvents=1" vertex="1" parent="1">
          <mxGeometry x="910.3" y="377" width="19.7" height="11" as="geometry" />
        </mxCell>
      </root>
    </mxGraphModel>
  </diagram>
</mxfile>
